<svg width="26" height="26" viewBox="0 0 26 26" fill="none" xmlns="http://www.w3.org/2000/svg">
<rect width="26" height="26" rx="2.21897" fill="#93C5FD"/>
<path fill-rule="evenodd" clip-rule="evenodd" d="M11.7923 10.4591L11.7462 10.4069C11.5462 10.2069 11.2315 10.1915 11.0139 10.3607L10.9617 10.4069L9.29743 12.0711L9.27446 12.0955V12.0955L9.24386 12.1331V12.1331L9.20411 12.1948V12.1948L9.17446 12.2574V12.2574L9.15483 12.3158V12.3158L9.13878 12.3978V12.3978L9.13495 12.4634L9.1365 12.5051V12.5051L9.14618 12.5747V12.5747L9.16254 12.6365V12.6365L9.18691 12.6981V12.6981L9.21594 12.7522V12.7522L9.25682 12.8103V12.8103L9.29743 12.8556L10.9617 14.5198C11.1783 14.7365 11.5295 14.7365 11.7462 14.5198C11.9462 14.3199 11.9615 14.0052 11.7923 13.7876L11.7462 13.7353L11.0294 13.0181H15.2371C15.5435 13.0181 15.7919 12.7697 15.7919 12.4634C15.7919 12.157 15.5435 11.9086 15.2371 11.9086H11.0294L11.7462 11.1914C11.9462 10.9914 11.9615 10.6767 11.7923 10.4591L11.7462 10.4069L11.7923 10.4591Z" fill="white"/>
</svg>
