<svg width="20" height="20" viewBox="0 0 20 20" fill="none" xmlns="http://www.w3.org/2000/svg">
<g clip-path="url(#clip0_104_70)">
<path d="M18.75 1.87293L13.7456 1.87294V0.627319C13.7456 0.282007 13.4659 0.00231934 13.1206 0.00231934C12.7753 0.00231934 12.4956 0.282007 12.4956 0.627319V1.87263H7.49563V0.627319C7.49563 0.282007 7.21594 0.00231934 6.87063 0.00231934C6.52531 0.00231934 6.24563 0.282007 6.24563 0.627319V1.87263H1.25C0.559687 1.87263 0 2.43232 0 3.12263V18.7476C0 19.4379 0.559687 19.9976 1.25 19.9976H18.75C19.4403 19.9976 20 19.4379 20 18.7476V3.12263C20 2.43261 19.4403 1.87293 18.75 1.87293ZM18.75 18.7476H1.25V3.12263H6.24563V3.75232C6.24563 4.09761 6.52531 4.37732 6.87063 4.37732C7.21594 4.37732 7.49563 4.09761 7.49563 3.75232V3.12294H12.4956V3.75263C12.4956 4.09794 12.7753 4.37763 13.1206 4.37763C13.4659 4.37763 13.7456 4.09794 13.7456 3.75263V3.12294H18.75V18.7476ZM14.375 9.99793H15.625C15.97 9.99793 16.25 9.71793 16.25 9.37293V8.12293C16.25 7.77793 15.97 7.49793 15.625 7.49793H14.375C14.03 7.49793 13.75 7.77793 13.75 8.12293V9.37293C13.75 9.71793 14.03 9.99793 14.375 9.99793ZM14.375 14.9976H15.625C15.97 14.9976 16.25 14.7179 16.25 14.3726V13.1226C16.25 12.7776 15.97 12.4976 15.625 12.4976H14.375C14.03 12.4976 13.75 12.7776 13.75 13.1226V14.3726C13.75 14.7182 14.03 14.9976 14.375 14.9976ZM10.625 12.4976H9.375C9.03 12.4976 8.75 12.7776 8.75 13.1226V14.3726C8.75 14.7179 9.03 14.9976 9.375 14.9976H10.625C10.97 14.9976 11.25 14.7179 11.25 14.3726V13.1226C11.25 12.7779 10.97 12.4976 10.625 12.4976ZM10.625 7.49793H9.375C9.03 7.49793 8.75 7.77793 8.75 8.12293V9.37293C8.75 9.71793 9.03 9.99793 9.375 9.99793H10.625C10.97 9.99793 11.25 9.71793 11.25 9.37293V8.12293C11.25 7.77761 10.97 7.49793 10.625 7.49793ZM5.625 7.49793H4.375C4.03 7.49793 3.75 7.77793 3.75 8.12293V9.37293C3.75 9.71793 4.03 9.99793 4.375 9.99793H5.625C5.97 9.99793 6.25 9.71793 6.25 9.37293V8.12293C6.25 7.77761 5.97 7.49793 5.625 7.49793ZM5.625 12.4976H4.375C4.03 12.4976 3.75 12.7776 3.75 13.1226V14.3726C3.75 14.7179 4.03 14.9976 4.375 14.9976H5.625C5.97 14.9976 6.25 14.7179 6.25 14.3726V13.1226C6.25 12.7779 5.97 12.4976 5.625 12.4976Z" fill="#1662DA"/>
</g>
<defs>
<clipPath id="clip0_104_70">
<rect width="20" height="20" fill="white"/>
</clipPath>
</defs>
</svg>
