<svg width="39" height="36" viewBox="0 0 39 36" fill="none" xmlns="http://www.w3.org/2000/svg">
<g filter="url(#filter0_d_236_107)">
<rect x="4" width="30.1175" height="28" rx="6" fill="#EEECFD"/>
</g>
<g clip-path="url(#clip0_236_107)">
<path d="M22.8461 4.14457C19.5269 4.14457 16.8361 5.62841 16.8361 7.46149C16.8361 9.29457 19.5276 10.7792 22.8461 10.7792C26.1653 10.7792 28.8561 9.29457 28.8561 7.46149C28.8561 5.62841 26.1646 4.14457 22.8461 4.14457ZM28.8561 8.44688C28.8546 10.28 26.1653 11.7646 22.8461 11.7646C19.5361 11.7646 16.8515 10.2961 16.8361 8.47149V9.76918C16.8361 10.5523 17.3376 11.2692 18.1592 11.8369C18.99 12.063 19.73 12.3769 20.3461 12.7738C21.11 12.9676 21.95 13.0861 22.8461 13.0861C26.1653 13.0861 28.8561 11.6023 28.8561 9.76918V8.44688ZM28.8561 10.7546C28.8561 12.5876 26.1653 14.0723 22.8461 14.0723C22.4423 14.0723 22.05 14.0423 21.6684 14C21.9695 14.4054 22.1749 14.8738 22.2692 15.37C22.4607 15.3807 22.65 15.3938 22.8461 15.3938C26.1653 15.3938 28.8561 13.91 28.8561 12.0769V10.7546ZM15.1538 12.6053C11.8346 12.6053 9.1438 14.09 9.1438 15.923C9.1438 17.7561 11.8353 19.2407 15.1538 19.2407C18.473 19.2407 21.1638 17.7561 21.1638 15.923C21.1638 14.09 18.4723 12.6053 15.1538 12.6053ZM28.8561 13.0623C28.8546 14.8953 26.1653 16.38 22.8461 16.38C22.653 16.38 22.4576 16.3661 22.2692 16.3553C22.2607 16.413 22.2561 16.49 22.2453 16.5476C22.2838 16.6638 22.3169 16.7784 22.3169 16.9092V17.6784C22.4915 17.6869 22.6669 17.7015 22.8461 17.7015C26.1653 17.7015 28.8561 16.2176 28.8561 14.3846V13.0623ZM28.8561 15.37C28.8546 17.203 26.1653 18.6876 22.8461 18.6876C22.653 18.6876 22.4576 18.6738 22.2692 18.663C22.2607 18.7207 22.2561 18.7976 22.2453 18.8553C22.2838 18.9707 22.3169 19.0861 22.3169 19.2169V19.9861C22.4915 19.9946 22.6669 20.0092 22.8461 20.0092C26.1653 20.0092 28.8561 18.5253 28.8561 16.6923V15.37ZM21.1638 16.9084C21.1623 18.7415 18.473 20.2261 15.1538 20.2261C11.8438 20.2261 9.15918 18.7576 9.1438 16.9323V18.2307C9.1438 20.0638 11.8338 21.5484 15.1538 21.5484C18.4738 21.5484 21.1638 20.0638 21.1638 18.2307V16.9084ZM21.1638 19.2161C21.1623 21.0492 18.473 22.5338 15.1538 22.5338C11.8438 22.5338 9.15918 21.0653 9.1438 19.24V20.5384C9.1438 22.3715 11.8338 23.8561 15.1538 23.8561C18.4738 23.8561 21.1638 22.3715 21.1638 20.5384V19.2161Z" fill="black"/>
</g>
<defs>
<filter id="filter0_d_236_107" x="0" y="0" width="38.1174" height="36" filterUnits="userSpaceOnUse" color-interpolation-filters="sRGB">
<feFlood flood-opacity="0" result="BackgroundImageFix"/>
<feColorMatrix in="SourceAlpha" type="matrix" values="0 0 0 0 0 0 0 0 0 0 0 0 0 0 0 0 0 0 127 0" result="hardAlpha"/>
<feOffset dy="4"/>
<feGaussianBlur stdDeviation="2"/>
<feComposite in2="hardAlpha" operator="out"/>
<feColorMatrix type="matrix" values="0 0 0 0 0 0 0 0 0 0 0 0 0 0 0 0 0 0 0.04 0"/>
<feBlend mode="normal" in2="BackgroundImageFix" result="effect1_dropShadow_236_107"/>
<feBlend mode="normal" in="SourceGraphic" in2="effect1_dropShadow_236_107" result="shape"/>
</filter>
<clipPath id="clip0_236_107">
<rect width="20" height="20" fill="white" transform="translate(9.09692 4)"/>
</clipPath>
</defs>
</svg>
