<svg width="39" height="36" viewBox="0 0 39 36" fill="none" xmlns="http://www.w3.org/2000/svg">
<g filter="url(#filter0_d_301_96)">
<rect x="4" width="30.1175" height="28" rx="6" fill="#E0F9FC"/>
</g>
<path d="M26.0637 15.1083H26.3844V14.4789H27.0258V14.1642H26.3844V13.5347H26.0637V14.1642H25.4223V14.4789H26.0637V15.1083ZM26.2241 15.8951C26.0022 15.8951 25.7938 15.8538 25.5987 15.7711C25.4036 15.6885 25.2339 15.5764 25.0896 15.4349C24.9453 15.2932 24.8311 15.1267 24.747 14.9352C24.6628 14.7438 24.6207 14.5392 24.6206 14.3215C24.6206 14.1038 24.6627 13.8993 24.747 13.7078C24.8312 13.5164 24.9454 13.3498 25.0896 13.2082C25.2339 13.0666 25.4036 12.9545 25.5987 12.8719C25.7938 12.7894 26.0022 12.748 26.2241 12.7479C26.4459 12.7479 26.6543 12.7893 26.8494 12.8719C27.0445 12.9546 27.2142 13.0667 27.3585 13.2082C27.5028 13.3498 27.6171 13.5164 27.7013 13.7078C27.7855 13.8993 27.8276 14.1038 27.8275 14.3215C27.8275 14.5392 27.7854 14.7438 27.7012 14.9352C27.6169 15.1267 27.5027 15.2932 27.3585 15.4349C27.2142 15.5765 27.0445 15.6886 26.8494 15.7713C26.6543 15.854 26.4459 15.8952 26.2241 15.8951Z" fill="black"/>
<rect x="11.1466" y="18.0369" width="2.81034" height="0.352442" fill="black" stroke="white" stroke-width="0.155172"/>
<rect x="9.07759" y="18.8492" width="2.81034" height="0.352442" fill="black" stroke="white" stroke-width="0.155172"/>
<rect x="11.1466" y="19.6613" width="1.05172" height="0.352442" fill="black" stroke="white" stroke-width="0.155172"/>
<mask id="path-6-inside-1_301_96" fill="white">
<path d="M17.5343 4.90109C19.1761 4.62353 20.863 4.76127 22.4355 5.30128C24.0081 5.8413 25.4144 6.76577 26.5217 7.9874C27.629 9.20903 28.4008 10.6875 28.7641 12.2832C29.1274 13.8788 29.0702 15.5391 28.598 17.107C28.1258 18.675 27.2542 20.099 26.0654 21.2445C24.8766 22.39 23.41 23.2193 21.8039 23.6539C20.1978 24.0886 18.5053 24.1143 16.8863 23.7286C15.2673 23.343 13.7751 22.5587 12.5508 21.4499L12.7661 21.2209C13.9508 22.2939 15.3946 23.0528 16.9612 23.4259C18.5278 23.7991 20.1654 23.7742 21.7195 23.3536C23.2736 22.9331 24.6928 22.1307 25.843 21.0223C26.9933 19.9138 27.8367 18.536 28.2936 17.0188C28.7505 15.5015 28.8058 13.8951 28.4543 12.3511C28.1027 10.8071 27.356 9.3765 26.2845 8.19444C25.2131 7.01237 23.8523 6.11783 22.3307 5.5953C20.8091 5.07278 19.1769 4.93951 17.5882 5.20807L17.5343 4.90109Z"/>
</mask>
<path d="M17.5343 4.90109C19.1761 4.62353 20.863 4.76127 22.4355 5.30128C24.0081 5.8413 25.4144 6.76577 26.5217 7.9874C27.629 9.20903 28.4008 10.6875 28.7641 12.2832C29.1274 13.8788 29.0702 15.5391 28.598 17.107C28.1258 18.675 27.2542 20.099 26.0654 21.2445C24.8766 22.39 23.41 23.2193 21.8039 23.6539C20.1978 24.0886 18.5053 24.1143 16.8863 23.7286C15.2673 23.343 13.7751 22.5587 12.5508 21.4499L12.7661 21.2209C13.9508 22.2939 15.3946 23.0528 16.9612 23.4259C18.5278 23.7991 20.1654 23.7742 21.7195 23.3536C23.2736 22.9331 24.6928 22.1307 25.843 21.0223C26.9933 19.9138 27.8367 18.536 28.2936 17.0188C28.7505 15.5015 28.8058 13.8951 28.4543 12.3511C28.1027 10.8071 27.356 9.3765 26.2845 8.19444C25.2131 7.01237 23.8523 6.11783 22.3307 5.5953C20.8091 5.07278 19.1769 4.93951 17.5882 5.20807L17.5343 4.90109Z" stroke="black" stroke-width="0.62069" mask="url(#path-6-inside-1_301_96)"/>
<mask id="path-7-inside-2_301_96" fill="white">
<path d="M9.80351 17.124C9.38059 15.729 9.28572 14.258 9.52605 12.8219C9.76638 11.3857 10.3357 10.0218 11.191 8.83284L11.4503 9.0125C10.6227 10.1629 10.0718 11.4827 9.83927 12.8724C9.60672 14.262 9.69851 15.6854 10.1077 17.0352L9.80351 17.124Z"/>
</mask>
<path d="M9.80351 17.124C9.38059 15.729 9.28572 14.258 9.52605 12.8219C9.76638 11.3857 10.3357 10.0218 11.191 8.83284L11.4503 9.0125C10.6227 10.1629 10.0718 11.4827 9.83927 12.8724C9.60672 14.262 9.69851 15.6854 10.1077 17.0352L9.80351 17.124Z" stroke="black" stroke-width="0.62069" mask="url(#path-7-inside-2_301_96)"/>
<path d="M15.2241 10.1034C15.2241 9.14358 16.0022 8.36548 16.9621 8.36548H23.4138V20.2775H15.2241V10.1034Z" fill="black"/>
<rect x="17.4138" y="9.60071" width="5.67241" height="0.423012" rx="0.211506" fill="white"/>
<rect x="17.069" y="10.3621" width="6.01724" height="0.423012" rx="0.211506" fill="white"/>
<rect x="15.569" y="11.1235" width="4.53448" height="0.423012" rx="0.211506" fill="white"/>
<rect x="20.4482" y="11.1235" width="2.63793" height="0.423012" rx="0.211506" fill="white"/>
<rect x="19.7241" y="11.8849" width="3.36207" height="0.439932" rx="0.219966" fill="white"/>
<rect x="15.569" y="11.8849" width="3.84483" height="0.439932" rx="0.219966" fill="white"/>
<rect x="15.569" y="12.6633" width="7.51724" height="0.423012" rx="0.211506" fill="white"/>
<rect x="15.569" y="13.5431" width="4.58621" height="0.423012" rx="0.211506" fill="white"/>
<rect x="20.5516" y="13.5431" width="2.53448" height="0.423012" rx="0.211506" fill="white"/>
<rect x="17.4138" y="14.4399" width="5.67241" height="0.423012" rx="0.211506" fill="white"/>
<rect x="15.569" y="14.4399" width="1.5" height="0.423012" rx="0.211506" fill="white"/>
<path d="M19.319 15.9797C18.1953 15.9797 17.2759 16.882 17.2759 17.9848C17.2759 19.0876 18.1953 19.9899 19.319 19.9899C20.4427 19.9899 21.3621 19.0876 21.3621 17.9848C21.3621 16.882 20.4427 15.9797 19.319 15.9797ZM19.319 19.5889C18.418 19.5889 17.6845 18.8691 17.6845 17.9848C17.6845 17.1006 18.418 16.3808 19.319 16.3808C20.22 16.3808 20.9535 17.1006 20.9535 17.9848C20.9535 18.8691 20.22 19.5889 19.319 19.5889ZM20.2568 17.0986L18.9104 18.4199L18.3812 17.9026L18.0931 18.1853L18.9104 18.9874L20.5448 17.3833L20.2568 17.0986Z" fill="white"/>
<path d="M14.2759 9.2943H14.276C14.942 9.29356 15.5808 9.03359 16.0522 8.57099C16.5236 8.10833 16.7891 7.48074 16.7898 6.82581V6.82572C16.7898 6.33715 16.6422 5.85968 16.3658 5.45369C16.0894 5.04772 15.6967 4.73152 15.2375 4.54485C14.7783 4.3582 14.2731 4.30938 13.7857 4.40452C13.2984 4.49966 12.8505 4.73453 12.4988 5.07966C12.1471 5.4248 11.9075 5.86471 11.8104 6.34385C11.7132 6.82299 11.7631 7.31963 11.9536 7.77088C12.144 8.22212 12.4664 8.60756 12.8798 8.87864C13.2932 9.1497 13.779 9.2943 14.2759 9.2943ZM14.4974 8.05231H14.4198V8.1299V8.34726C14.4198 8.38385 14.405 8.41925 14.3782 8.44558C14.3513 8.47196 14.3145 8.48704 14.2759 8.48704C14.2373 8.48704 14.2005 8.47196 14.1736 8.44558C14.1468 8.41925 14.132 8.38385 14.132 8.34726V8.1299V8.05231H14.0544H13.6115C13.5728 8.05231 13.5361 8.03724 13.5092 8.01086C13.4824 7.98453 13.4676 7.94913 13.4676 7.91253C13.4676 7.87594 13.4824 7.84054 13.5092 7.81421C13.5361 7.78783 13.5728 7.77276 13.6115 7.77276H14.6081C14.7164 7.77276 14.8204 7.73058 14.8974 7.65505C14.9744 7.57947 15.018 7.47665 15.018 7.36913C15.018 7.2616 14.9744 7.15878 14.8974 7.0832C14.8204 7.00767 14.7164 6.9655 14.6081 6.9655H13.9437C13.7582 6.9655 13.5806 6.89317 13.4499 6.76488C13.3192 6.63664 13.2461 6.46303 13.2461 6.28231C13.2461 6.10159 13.3192 5.92798 13.4499 5.79974C13.5806 5.67145 13.7582 5.59913 13.9437 5.59913H14.0544H14.132V5.52154V5.30418C14.132 5.26758 14.1468 5.23218 14.1736 5.20585C14.2005 5.17947 14.2373 5.1644 14.2759 5.1644C14.3145 5.1644 14.3513 5.17947 14.3782 5.20585C14.405 5.23218 14.4198 5.26758 14.4198 5.30418V5.52154V5.59913H14.4974H14.9404C14.979 5.59913 15.0158 5.6142 15.0426 5.64058C15.0695 5.66691 15.0843 5.70231 15.0843 5.7389C15.0843 5.7755 15.0695 5.8109 15.0426 5.83723C15.0158 5.86361 14.979 5.87868 14.9404 5.87868H13.9437C13.8355 5.87868 13.7314 5.92086 13.6544 5.99639C13.5774 6.07197 13.5339 6.17479 13.5339 6.28231C13.5339 6.38984 13.5774 6.49266 13.6544 6.56823C13.7314 6.64376 13.8355 6.68594 13.9437 6.68594H14.6081C14.7936 6.68594 14.9712 6.75827 15.1019 6.88655C15.2326 7.01479 15.3058 7.18841 15.3058 7.36913C15.3058 7.54984 15.2326 7.72346 15.1019 7.8517C14.9712 7.97998 14.7936 8.05231 14.6081 8.05231H14.4974ZM12.7188 4.5411C13.1796 4.23895 13.7215 4.07759 14.2759 4.07759V4L14.2758 4.07759C15.0191 4.07836 15.7315 4.36849 16.2567 4.88388C16.7818 5.39922 17.0769 6.09764 17.0776 6.8258C17.0776 7.36897 16.9135 7.90007 16.6058 8.35194C16.2982 8.80385 15.8607 9.15629 15.3486 9.36447C14.8364 9.57265 14.2728 9.62714 13.7291 9.52099C13.1853 9.41484 12.686 9.15287 12.2943 8.76843C11.9026 8.384 11.636 7.89438 11.528 7.36158C11.42 6.82878 11.4754 6.27651 11.6873 5.77453C11.8991 5.27254 12.258 4.84324 12.7188 4.5411Z" fill="black" stroke="white" stroke-width="0.155172"/>
<defs>
<filter id="filter0_d_301_96" x="0" y="0" width="38.1174" height="36" filterUnits="userSpaceOnUse" color-interpolation-filters="sRGB">
<feFlood flood-opacity="0" result="BackgroundImageFix"/>
<feColorMatrix in="SourceAlpha" type="matrix" values="0 0 0 0 0 0 0 0 0 0 0 0 0 0 0 0 0 0 127 0" result="hardAlpha"/>
<feOffset dy="4"/>
<feGaussianBlur stdDeviation="2"/>
<feComposite in2="hardAlpha" operator="out"/>
<feColorMatrix type="matrix" values="0 0 0 0 0 0 0 0 0 0 0 0 0 0 0 0 0 0 0.04 0"/>
<feBlend mode="normal" in2="BackgroundImageFix" result="effect1_dropShadow_301_96"/>
<feBlend mode="normal" in="SourceGraphic" in2="effect1_dropShadow_301_96" result="shape"/>
</filter>
</defs>
</svg>
