<svg width="39" height="36" viewBox="0 0 39 36" fill="none" xmlns="http://www.w3.org/2000/svg">
<g filter="url(#filter0_d_236_104)">
<g filter="url(#filter1_d_236_104)">
<rect x="4.09692" width="30.1175" height="28" rx="6" fill="#E0F9FC"/>
</g>
<path d="M26.1606 15.1083H26.4813V14.4789H27.1227V14.1642H26.4813V13.5347H26.1606V14.1642H25.5193V14.4789H26.1606V15.1083ZM26.321 15.8951C26.0992 15.8951 25.8907 15.8538 25.6956 15.7711C25.5005 15.6885 25.3308 15.5764 25.1865 15.4349C25.0422 15.2932 24.928 15.1267 24.8439 14.9352C24.7598 14.7438 24.7176 14.5392 24.7175 14.3215C24.7175 14.1038 24.7596 13.8993 24.8439 13.7078C24.9281 13.5164 25.0423 13.3498 25.1865 13.2082C25.3308 13.0666 25.5005 12.9545 25.6956 12.8719C25.8907 12.7894 26.0992 12.748 26.321 12.7479C26.5428 12.7479 26.7512 12.7893 26.9463 12.8719C27.1414 12.9546 27.3111 13.0667 27.4554 13.2082C27.5997 13.3498 27.714 13.5164 27.7982 13.7078C27.8825 13.8993 27.9245 14.1038 27.9244 14.3215C27.9244 14.5392 27.8823 14.7438 27.7981 14.9352C27.7138 15.1267 27.5996 15.2932 27.4554 15.4349C27.3111 15.5765 27.1414 15.6886 26.9463 15.7713C26.7512 15.854 26.5428 15.8952 26.321 15.8951Z" fill="black"/>
<rect x="11.2435" y="18.0369" width="2.81034" height="0.352442" fill="black" stroke="white" stroke-width="0.155172"/>
<rect x="9.17451" y="18.8492" width="2.81034" height="0.352442" fill="black" stroke="white" stroke-width="0.155172"/>
<rect x="11.2435" y="19.6613" width="1.05172" height="0.352442" fill="black" stroke="white" stroke-width="0.155172"/>
<mask id="path-6-inside-1_236_104" fill="white">
<path d="M17.6312 4.90109C19.2731 4.62353 20.9599 4.76127 22.5324 5.30128C24.105 5.8413 25.5113 6.76577 26.6186 7.9874C27.7259 9.20903 28.4977 10.6875 28.861 12.2832C29.2243 13.8788 29.1671 15.5391 28.695 17.107C28.2228 18.675 27.3511 20.099 26.1624 21.2445C24.9736 22.39 23.5069 23.2193 21.9008 23.6539C20.2947 24.0886 18.6022 24.1143 16.9832 23.7286C15.3642 23.343 13.8721 22.5587 12.6477 21.4499L12.863 21.2209C14.0477 22.2939 15.4915 23.0528 17.0581 23.4259C18.6247 23.7991 20.2623 23.7742 21.8164 23.3536C23.3705 22.9331 24.7897 22.1307 25.94 21.0223C27.0903 19.9138 27.9337 18.536 28.3906 17.0188C28.8474 15.5015 28.9027 13.8951 28.5512 12.3511C28.1997 10.8071 27.4529 9.3765 26.3815 8.19444C25.31 7.01237 23.9492 6.11783 22.4276 5.5953C20.906 5.07278 19.2738 4.93951 17.6851 5.20807L17.6312 4.90109Z"/>
</mask>
<path d="M17.6312 4.90109C19.2731 4.62353 20.9599 4.76127 22.5324 5.30128C24.105 5.8413 25.5113 6.76577 26.6186 7.9874C27.7259 9.20903 28.4977 10.6875 28.861 12.2832C29.2243 13.8788 29.1671 15.5391 28.695 17.107C28.2228 18.675 27.3511 20.099 26.1624 21.2445C24.9736 22.39 23.5069 23.2193 21.9008 23.6539C20.2947 24.0886 18.6022 24.1143 16.9832 23.7286C15.3642 23.343 13.8721 22.5587 12.6477 21.4499L12.863 21.2209C14.0477 22.2939 15.4915 23.0528 17.0581 23.4259C18.6247 23.7991 20.2623 23.7742 21.8164 23.3536C23.3705 22.9331 24.7897 22.1307 25.94 21.0223C27.0903 19.9138 27.9337 18.536 28.3906 17.0188C28.8474 15.5015 28.9027 13.8951 28.5512 12.3511C28.1997 10.8071 27.4529 9.3765 26.3815 8.19444C25.31 7.01237 23.9492 6.11783 22.4276 5.5953C20.906 5.07278 19.2738 4.93951 17.6851 5.20807L17.6312 4.90109Z" stroke="black" stroke-width="0.62069" mask="url(#path-6-inside-1_236_104)"/>
<mask id="path-7-inside-2_236_104" fill="white">
<path d="M9.90043 17.124C9.47751 15.729 9.38264 14.258 9.62298 12.8219C9.86331 11.3857 10.4326 10.0218 11.2879 8.83284L11.5472 9.0125C10.7196 10.1629 10.1687 11.4827 9.93619 12.8724C9.70364 14.262 9.79544 15.6854 10.2047 17.0352L9.90043 17.124Z"/>
</mask>
<path d="M9.90043 17.124C9.47751 15.729 9.38264 14.258 9.62298 12.8219C9.86331 11.3857 10.4326 10.0218 11.2879 8.83284L11.5472 9.0125C10.7196 10.1629 10.1687 11.4827 9.93619 12.8724C9.70364 14.262 9.79544 15.6854 10.2047 17.0352L9.90043 17.124Z" stroke="black" stroke-width="0.62069" mask="url(#path-7-inside-2_236_104)"/>
<path d="M15.321 10.1034C15.321 9.14358 16.0991 8.36548 17.059 8.36548H23.5107V20.2775H15.321V10.1034Z" fill="black"/>
<rect x="17.5107" y="9.60071" width="5.67241" height="0.423012" rx="0.211506" fill="white"/>
<rect x="17.1659" y="10.3621" width="6.01724" height="0.423012" rx="0.211506" fill="white"/>
<rect x="15.6659" y="11.1235" width="4.53448" height="0.423012" rx="0.211506" fill="white"/>
<rect x="20.5452" y="11.1235" width="2.63793" height="0.423012" rx="0.211506" fill="white"/>
<rect x="19.821" y="11.8849" width="3.36207" height="0.439932" rx="0.219966" fill="white"/>
<rect x="15.6659" y="11.8849" width="3.84483" height="0.439932" rx="0.219966" fill="white"/>
<rect x="15.6659" y="12.6633" width="7.51724" height="0.423012" rx="0.211506" fill="white"/>
<rect x="15.6659" y="13.5431" width="4.58621" height="0.423012" rx="0.211506" fill="white"/>
<rect x="20.6486" y="13.5431" width="2.53448" height="0.423012" rx="0.211506" fill="white"/>
<rect x="17.5107" y="14.4399" width="5.67241" height="0.423012" rx="0.211506" fill="white"/>
<rect x="15.6659" y="14.4399" width="1.5" height="0.423012" rx="0.211506" fill="white"/>
<path d="M19.4159 15.9797C18.2922 15.9797 17.3728 16.882 17.3728 17.9848C17.3728 19.0876 18.2922 19.9899 19.4159 19.9899C20.5396 19.9899 21.459 19.0876 21.459 17.9848C21.459 16.882 20.5396 15.9797 19.4159 15.9797ZM19.4159 19.5889C18.5149 19.5889 17.7814 18.8691 17.7814 17.9848C17.7814 17.1006 18.5149 16.3808 19.4159 16.3808C20.3169 16.3808 21.0504 17.1006 21.0504 17.9848C21.0504 18.8691 20.3169 19.5889 19.4159 19.5889ZM20.3537 17.0986L19.0073 18.4199L18.4781 17.9026L18.19 18.1853L19.0073 18.9874L20.6418 17.3833L20.3537 17.0986Z" fill="white"/>
<path d="M14.3728 9.2943H14.3729C15.0389 9.29356 15.6777 9.03359 16.1491 8.57099C16.6206 8.10833 16.886 7.48074 16.8868 6.82581V6.82572C16.8868 6.33715 16.7391 5.85968 16.4627 5.45369C16.1863 5.04772 15.7936 4.73152 15.3344 4.54485C14.8752 4.3582 14.37 4.30938 13.8827 4.40452C13.3953 4.49966 12.9474 4.73453 12.5957 5.07966C12.2441 5.4248 12.0044 5.86471 11.9073 6.34385C11.8102 6.82299 11.86 7.31963 12.0505 7.77088C12.2409 8.22212 12.5634 8.60756 12.9767 8.87864C13.3901 9.1497 13.876 9.2943 14.3728 9.2943ZM14.5943 8.05231H14.5167V8.1299V8.34726C14.5167 8.38385 14.5019 8.41925 14.4751 8.44558C14.4482 8.47196 14.4115 8.48704 14.3728 8.48704C14.3342 8.48704 14.2975 8.47196 14.2706 8.44558C14.2437 8.41925 14.2289 8.38385 14.2289 8.34726V8.1299V8.05231H14.1514H13.7084C13.6698 8.05231 13.633 8.03724 13.6061 8.01086C13.5793 7.98453 13.5645 7.94913 13.5645 7.91253C13.5645 7.87594 13.5793 7.84054 13.6061 7.81421C13.633 7.78783 13.6698 7.77276 13.7084 7.77276H14.7051C14.8133 7.77276 14.9174 7.73058 14.9943 7.65505C15.0713 7.57947 15.1149 7.47665 15.1149 7.36913C15.1149 7.2616 15.0713 7.15878 14.9943 7.0832C14.9174 7.00767 14.8133 6.9655 14.7051 6.9655H14.0406C13.8551 6.9655 13.6775 6.89317 13.5468 6.76488C13.4161 6.63664 13.343 6.46303 13.343 6.28231C13.343 6.10159 13.4161 5.92798 13.5468 5.79974C13.6775 5.67145 13.8551 5.59913 14.0406 5.59913H14.1514H14.2289V5.52154V5.30418C14.2289 5.26758 14.2437 5.23218 14.2706 5.20585C14.2975 5.17947 14.3342 5.1644 14.3728 5.1644C14.4115 5.1644 14.4482 5.17947 14.4751 5.20585C14.5019 5.23218 14.5167 5.26758 14.5167 5.30418V5.52154V5.59913H14.5943H15.0373C15.0759 5.59913 15.1127 5.6142 15.1396 5.64058C15.1664 5.66691 15.1812 5.70231 15.1812 5.7389C15.1812 5.7755 15.1664 5.8109 15.1396 5.83723C15.1127 5.86361 15.0759 5.87868 15.0373 5.87868H14.0406C13.9324 5.87868 13.8283 5.92086 13.7513 5.99639C13.6743 6.07197 13.6308 6.17479 13.6308 6.28231C13.6308 6.38984 13.6743 6.49266 13.7513 6.56823C13.8283 6.64376 13.9324 6.68594 14.0406 6.68594H14.7051C14.8906 6.68594 15.0682 6.75827 15.1989 6.88655C15.3295 7.01479 15.4027 7.18841 15.4027 7.36913C15.4027 7.54984 15.3295 7.72346 15.1989 7.8517C15.0682 7.97998 14.8906 8.05231 14.7051 8.05231H14.5943ZM12.8157 4.5411C13.2765 4.23895 13.8184 4.07759 14.3728 4.07759V4L14.3728 4.07759C15.1161 4.07836 15.8284 4.36849 16.3536 4.88388C16.8787 5.39922 17.1738 6.09764 17.1746 6.8258C17.1745 7.36897 17.0104 7.90007 16.7028 8.35194C16.3951 8.80385 15.9576 9.15629 15.4455 9.36447C14.9334 9.57265 14.3697 9.62714 13.826 9.52099C13.2822 9.41484 12.7829 9.15287 12.3912 8.76843C11.9995 8.384 11.7329 7.89438 11.6249 7.36158C11.5169 6.82878 11.5723 6.27651 11.7842 5.77453C11.9961 5.27254 12.355 4.84324 12.8157 4.5411Z" fill="black" stroke="white" stroke-width="0.155172"/>
</g>
<defs>
<filter id="filter0_d_236_104" x="0.0969238" y="0" width="38.1174" height="36" filterUnits="userSpaceOnUse" color-interpolation-filters="sRGB">
<feFlood flood-opacity="0" result="BackgroundImageFix"/>
<feColorMatrix in="SourceAlpha" type="matrix" values="0 0 0 0 0 0 0 0 0 0 0 0 0 0 0 0 0 0 127 0" result="hardAlpha"/>
<feOffset dy="4"/>
<feGaussianBlur stdDeviation="2"/>
<feComposite in2="hardAlpha" operator="out"/>
<feColorMatrix type="matrix" values="0 0 0 0 0 0 0 0 0 0 0 0 0 0 0 0 0 0 0.25 0"/>
<feBlend mode="normal" in2="BackgroundImageFix" result="effect1_dropShadow_236_104"/>
<feBlend mode="normal" in="SourceGraphic" in2="effect1_dropShadow_236_104" result="shape"/>
</filter>
<filter id="filter1_d_236_104" x="0.0969238" y="0" width="38.1174" height="36" filterUnits="userSpaceOnUse" color-interpolation-filters="sRGB">
<feFlood flood-opacity="0" result="BackgroundImageFix"/>
<feColorMatrix in="SourceAlpha" type="matrix" values="0 0 0 0 0 0 0 0 0 0 0 0 0 0 0 0 0 0 127 0" result="hardAlpha"/>
<feOffset dy="4"/>
<feGaussianBlur stdDeviation="2"/>
<feComposite in2="hardAlpha" operator="out"/>
<feColorMatrix type="matrix" values="0 0 0 0 0 0 0 0 0 0 0 0 0 0 0 0 0 0 0.04 0"/>
<feBlend mode="normal" in2="BackgroundImageFix" result="effect1_dropShadow_236_104"/>
<feBlend mode="normal" in="SourceGraphic" in2="effect1_dropShadow_236_104" result="shape"/>
</filter>
</defs>
</svg>
