<svg width="58" height="58" viewBox="0 0 58 58" fill="none" xmlns="http://www.w3.org/2000/svg">
<path d="M0 20C0 8.95431 8.95431 0 20 0H58V39.4722C58 49.7048 49.7048 58 39.4722 58H0V20Z" fill="white"/>
<path fill-rule="evenodd" clip-rule="evenodd" d="M21.8324 14.373C24.4867 13.8536 25.97 17.1187 25.97 19.345C25.97 21.2744 25.1112 23.4264 22.9254 23.1296C22.535 23.0554 21.9886 22.7586 21.5982 22.5359C19.6466 20.9776 18.9439 16.5251 20.8176 14.8183C21.0518 14.5956 21.4421 14.4472 21.8324 14.373Z" fill="#14A15F"/>
<path fill-rule="evenodd" clip-rule="evenodd" d="M30.0295 14.2987C30.2637 14.2245 30.8101 14.2245 31.2005 14.373C34.167 15.2635 33.4644 20.7549 31.3566 22.4617C30.8882 22.8327 29.9514 23.3522 29.0146 23.0553C27.6094 22.6843 26.9849 20.8291 26.9849 19.4191C26.9849 17.1929 27.9217 15.3377 29.1707 14.5956C29.3269 14.4472 29.6391 14.2987 30.0295 14.2987Z" fill="#14A15F"/>
<path fill-rule="evenodd" clip-rule="evenodd" d="M17.3046 20.6807C18.2414 20.6065 19.1782 21.1259 19.8027 21.7196C21.3641 23.1295 22.5351 27.3594 19.7247 28.2499C19.1782 28.3983 18.4756 28.3241 18.0072 28.1015C16.602 27.582 15.1968 25.7268 15.0407 24.0943C14.8065 22.3133 15.5871 20.7549 17.3046 20.6807Z" fill="#14A15F"/>
<path fill-rule="evenodd" clip-rule="evenodd" d="M35.4162 20.458C36.353 20.3838 37.1336 20.9033 37.524 21.4969C38.9292 23.7974 36.9775 27.2852 34.8697 27.9531C33.4645 28.3983 32.3715 27.6562 31.9031 26.9141C30.8883 25.1331 31.8251 22.6843 33.0741 21.4969C33.6206 21.0517 34.4013 20.5322 35.4162 20.458Z" fill="#14A15F"/>
<path d="M26.0781 24.7402C25.1541 25.0858 24.3841 25.7079 23.6911 26.1917C21.535 27.7122 19.302 29.5784 18.378 31.9284C17.377 34.3474 18.455 36.5592 20.38 37.5959C22.228 38.6327 24.7691 38.4944 26.3091 36.4209C27.8491 38.4253 30.3901 38.5635 32.2381 37.4577C34.0861 36.3518 35.0871 34.1401 34.0861 31.721C33.6241 30.6843 32.7771 29.7857 31.9301 28.9563C31.0061 28.0578 30.0051 27.2284 29.0041 26.4681C28.0031 25.9152 27.2331 25.2932 26.0781 24.7402Z" fill="#14A15F"/>
</svg>
