<svg width="39" height="36" viewBox="0 0 39 36" fill="none" xmlns="http://www.w3.org/2000/svg">
<g filter="url(#filter0_d_236_103)">
<rect x="4" width="30.1175" height="28" rx="6" fill="#FCEAEA"/>
</g>
<path d="M21.0616 7.29261C18.9373 7.29261 17.2152 8.24227 17.2152 9.41544C17.2152 10.5886 18.9378 11.5388 21.0616 11.5388C23.1859 11.5388 24.908 10.5886 24.908 9.41544C24.908 8.24227 23.1854 7.29261 21.0616 7.29261ZM24.908 10.0461C24.907 11.2193 23.1859 12.1694 21.0616 12.1694C18.9432 12.1694 17.225 11.2296 17.2152 10.0618V10.8924C17.2152 11.3935 17.5362 11.8524 18.062 12.2157C18.5937 12.3604 19.0673 12.5613 19.4616 12.8153C19.9505 12.9394 20.4881 13.0152 21.0616 13.0152C23.1859 13.0152 24.908 12.0655 24.908 10.8924V10.0461ZM24.908 11.523C24.908 12.6962 23.1859 13.6463 21.0616 13.6463C20.8031 13.6463 20.5521 13.6271 20.3079 13.6001C20.5006 13.8596 20.632 14.1593 20.6924 14.4769C20.8149 14.4837 20.9361 14.4921 21.0616 14.4921C23.1859 14.4921 24.908 13.5425 24.908 12.3693V11.523ZM16.1385 12.7075C14.0142 12.7075 12.2921 13.6577 12.2921 14.8308C12.2921 16.004 14.0147 16.9541 16.1385 16.9541C18.2628 16.9541 19.9849 16.004 19.9849 14.8308C19.9849 13.6577 18.2623 12.7075 16.1385 12.7075ZM24.908 12.9999C24.907 14.1731 23.1859 15.1233 21.0616 15.1233C20.938 15.1233 20.813 15.1144 20.6924 15.1075C20.6869 15.1444 20.684 15.1937 20.6771 15.2306C20.7017 15.3049 20.7229 15.3783 20.7229 15.462V15.9543C20.8346 15.9597 20.9469 15.969 21.0616 15.969C23.1859 15.969 24.908 15.0194 24.908 13.8462V12.9999ZM24.908 14.4769C24.907 15.65 23.1859 16.6002 21.0616 16.6002C20.938 16.6002 20.813 16.5913 20.6924 16.5844C20.6869 16.6213 20.684 16.6706 20.6771 16.7075C20.7017 16.7813 20.7229 16.8552 20.7229 16.9389V17.4312C20.8346 17.4366 20.9469 17.446 21.0616 17.446C23.1859 17.446 24.908 16.4963 24.908 15.3231V14.4769ZM19.9849 15.4615C19.9839 16.6346 18.2628 17.5848 16.1385 17.5848C14.0201 17.5848 12.302 16.645 12.2921 15.4767V16.3077C12.2921 17.4809 14.0137 18.4311 16.1385 18.4311C18.2633 18.4311 19.9849 17.4809 19.9849 16.3077V15.4615ZM19.9849 16.9384C19.9839 18.1116 18.2628 19.0617 16.1385 19.0617C14.0201 19.0617 12.302 18.1219 12.2921 16.9537V17.7847C12.2921 18.9578 14.0137 19.908 16.1385 19.908C18.2633 19.908 19.9849 18.9578 19.9849 17.7847V16.9384Z" fill="black"/>
<circle cx="19" cy="14" r="9.78" stroke="black" stroke-width="0.44"/>
<defs>
<filter id="filter0_d_236_103" x="0" y="0" width="38.1174" height="36" filterUnits="userSpaceOnUse" color-interpolation-filters="sRGB">
<feFlood flood-opacity="0" result="BackgroundImageFix"/>
<feColorMatrix in="SourceAlpha" type="matrix" values="0 0 0 0 0 0 0 0 0 0 0 0 0 0 0 0 0 0 127 0" result="hardAlpha"/>
<feOffset dy="4"/>
<feGaussianBlur stdDeviation="2"/>
<feComposite in2="hardAlpha" operator="out"/>
<feColorMatrix type="matrix" values="0 0 0 0 0 0 0 0 0 0 0 0 0 0 0 0 0 0 0.04 0"/>
<feBlend mode="normal" in2="BackgroundImageFix" result="effect1_dropShadow_236_103"/>
<feBlend mode="normal" in="SourceGraphic" in2="effect1_dropShadow_236_103" result="shape"/>
</filter>
</defs>
</svg>
