<svg width="247" height="51" viewBox="0 0 247 51" fill="none" xmlns="http://www.w3.org/2000/svg">
<rect width="247" height="51" fill="#14A15F"/>
<rect width="128" height="51" fill="#4567AC"/>
<path d="M106.833 34C106.337 34 105.953 33.6 105.953 33.12V23.68C105.953 23.2 106.337 22.8 106.833 22.8C107.329 22.8 107.729 23.2 107.729 23.68V32.224H112.065C112.529 32.224 112.945 32.624 112.945 33.12C112.945 33.6 112.529 34 112.065 34H106.881C106.849 34 106.849 34 106.849 34C106.833 34 106.833 34 106.833 34ZM118.124 34.048C117.02 34.048 116.092 33.584 115.372 32.832C114.684 32.128 114.268 31.136 114.268 30.016C114.268 28.928 114.684 27.984 115.372 27.216C116.092 26.464 117.02 26 118.124 26C119.18 26 120.14 26.464 120.796 27.216C121.516 27.984 121.916 28.928 121.916 30.016C121.916 31.136 121.516 32.128 120.796 32.832C120.14 33.584 119.18 34.048 118.124 34.048ZM116.588 28.352C116.22 28.784 116.012 29.36 116.012 30.016C116.012 30.704 116.22 31.264 116.588 31.712C116.988 32.096 117.516 32.304 118.124 32.304C118.684 32.304 119.196 32.096 119.596 31.712C119.996 31.264 120.22 30.704 120.22 30.016C120.22 29.36 119.996 28.784 119.596 28.352C119.196 28 118.684 27.744 118.124 27.744C117.516 27.744 116.988 28 116.588 28.352ZM131.788 30.032V30.048V33.024C131.788 35.12 130.076 36.864 127.948 36.864C127.356 36.864 126.764 36.72 126.268 36.464C125.852 36.272 125.66 35.744 125.884 35.312C126.092 34.88 126.588 34.72 127.036 34.912C127.308 35.056 127.612 35.136 127.948 35.136C128.988 35.136 129.836 34.4 130.044 33.424C129.468 33.824 128.732 34.064 127.948 34.064C126.892 34.064 125.916 33.6 125.228 32.848C124.54 32.144 124.108 31.152 124.108 30.032C124.108 28.928 124.54 27.936 125.228 27.184C125.916 26.464 126.892 26 127.948 26C128.78 26 129.516 26.256 130.092 26.672C130.172 26.288 130.524 26 130.94 26C131.42 26 131.788 26.384 131.788 26.848V30.032ZM129.468 31.68C129.82 31.312 130.076 30.704 130.076 30.032C130.076 29.392 129.82 28.784 129.468 28.4C129.052 27.952 128.556 27.712 127.948 27.712C127.388 27.712 126.86 27.952 126.476 28.4C126.092 28.784 125.836 29.392 125.836 30.032C125.836 30.704 126.092 31.312 126.476 31.68C126.86 32.112 127.388 32.336 127.948 32.336C128.556 32.336 129.052 32.112 129.468 31.68ZM138.687 34.048C137.583 34.048 136.655 33.584 135.935 32.832C135.247 32.128 134.831 31.136 134.831 30.016C134.831 28.928 135.247 27.984 135.935 27.216C136.655 26.464 137.583 26 138.687 26C139.743 26 140.703 26.464 141.359 27.216C142.079 27.984 142.479 28.928 142.479 30.016C142.479 31.136 142.079 32.128 141.359 32.832C140.703 33.584 139.743 34.048 138.687 34.048ZM137.151 28.352C136.783 28.784 136.575 29.36 136.575 30.016C136.575 30.704 136.783 31.264 137.151 31.712C137.551 32.096 138.079 32.304 138.687 32.304C139.247 32.304 139.759 32.096 140.159 31.712C140.559 31.264 140.783 30.704 140.783 30.016C140.783 29.36 140.559 28.784 140.159 28.352C139.759 28 139.247 27.744 138.687 27.744C138.079 27.744 137.551 28 137.151 28.352Z" fill="white"/>
</svg>
