<svg width="115" height="27" viewBox="0 0 115 27" fill="none" xmlns="http://www.w3.org/2000/svg">
<path fill-rule="evenodd" clip-rule="evenodd" d="M100.764 14.4241H111.187C111.123 13.4054 110.802 12.5767 110.229 11.9493C109.146 10.7649 107.4 10.5155 106.125 10.5155C103.436 10.5155 101.473 11.9825 100.764 14.4241ZM114.81 17.0441L114.646 18.0174H100.561C100.957 21.0971 103.027 22.6416 106.853 22.7317C108.702 22.7024 110.467 22.3119 112.206 21.5363L113.48 20.9671L114.392 24.705L113.504 25.1015C111.415 26.0347 108.993 26.5694 106.86 26.5694C103.543 26.5694 100.813 25.5464 98.9647 23.6114C97.1937 21.7564 96.334 19.1338 96.4777 16.0266C96.7823 10.4071 100.597 6.78285 106.194 6.78285C109.294 6.80237 111.736 7.77344 113.263 9.58978C114.79 11.4054 115.324 13.9834 114.81 17.0441ZM78.331 14.4241H88.7535C88.6888 13.4054 88.3689 12.5767 87.7964 11.9493C86.7126 10.7649 84.9668 10.5155 83.6924 10.5155C81.0033 10.5155 79.0404 11.9825 78.331 14.4241ZM90.8299 9.58978C92.3562 11.4054 92.8912 13.9834 92.3777 17.0441L92.2138 18.0174H78.1275C78.5245 21.0971 80.5942 22.6416 84.4203 22.7317C86.2691 22.7024 88.0344 22.3119 89.7721 21.5363L91.0484 20.9671L91.96 24.705L91.0721 25.1015C88.9826 26.0347 86.5605 26.5694 84.4275 26.5694C81.1096 26.5694 78.3804 25.5464 76.5317 23.6114C74.7608 21.7564 73.9015 19.1338 74.0447 16.0266C74.3499 10.4071 78.1636 6.78285 83.7616 6.78285C86.8611 6.80237 89.3022 7.77344 90.8299 9.58978ZM64.5454 17.3773V12.3284C63.1089 11.2468 61.4493 10.6566 59.8215 10.6566C57.3189 10.6566 54.397 12.2146 54.397 16.6059C54.397 19.4317 55.7354 22.7317 59.5062 22.7317C62.8585 22.7317 64.4689 19.957 64.5454 17.3773ZM70.6279 22.5698L70.8211 26.1813L69.7833 26.3454C68.678 26.5219 67.0753 26.6471 65.9683 25.7011C65.5662 25.3577 65.2954 24.9319 65.1131 24.4708C63.6598 25.8298 61.6576 26.5694 59.2958 26.5694C54.0491 26.5694 50.384 22.472 50.384 16.6059C50.384 10.1567 55.0958 6.78285 59.751 6.78285C61.364 6.78285 63.0133 7.18734 64.5454 7.94438V0H66.5327C67.6321 0 68.5232 0.891205 68.5232 1.99066V22.0747C68.5232 22.4788 68.5564 22.6816 68.5802 22.7759C68.6839 22.7917 68.9193 22.8044 69.3737 22.7427L70.6279 22.5698ZM42.9355 6.81858C41.4251 6.73182 39.5786 7.13945 38.1129 8.3264C37.9615 8.11052 37.784 7.91583 37.5803 7.74379C36.6729 6.97791 35.3797 6.74711 33.6203 7.04367L32.6017 7.21552L32.7792 11.0208L34.036 10.8559C34.26 10.827 34.4274 10.8193 34.5468 10.8193C34.7122 10.8193 34.7869 10.8342 34.7963 10.8248C34.8914 11.0217 34.8914 11.7331 34.8914 12.119V26.2898H38.905V14.1869C38.905 11.9622 40.8515 10.7611 42.6828 10.7611C43.9152 10.7611 45.0375 11.09 45.8434 11.6879L47.0525 12.5855L48.5582 8.8694L47.8148 8.3345C46.4958 7.38498 44.809 6.86187 42.9355 6.81858ZM24.0274 26.2898H28.0055V7.06338H24.0274V26.2898ZM20.268 7.06338L11.2843 26.3603H9.06457L0 7.06338H0.752618H3.06297C3.95576 7.06338 4.76529 7.58722 5.13165 8.40155L10.13 19.5298L15.821 7.06338H19.5235H20.268Z" fill="#171717"/>
<path fill-rule="evenodd" clip-rule="evenodd" d="M27.5761 1.97667C27.2653 0.861008 26.2492 0.0892334 25.0911 0.0892334H22.7049L23.9215 3.17928C24.0368 3.64842 24.4575 3.97794 24.9403 3.97794H27.5505C27.8025 3.97794 28.0065 3.77386 28.0065 3.52225L27.5761 1.97667Z" fill="#1FBA77"/>
</svg>
