<svg width="509" height="175" viewBox="0 0 509 175" fill="none" xmlns="http://www.w3.org/2000/svg">
<path d="M1 115.955C7.82828 116.606 27.2206 110.486 50.1636 80.7997C73.1067 51.1131 104.79 59.316 117.764 67.1283C135.517 78.1956 176.555 93.2993 198.679 65.1752C226.333 30.0201 249.891 6.58336 286.764 38.8089C323.636 71.0344 337.976 90.565 380.994 30.9966C424.012 -28.5717 466.006 18.3017 485.467 22.2079C501.035 25.3328 506.976 19.6038 508 16.3487" stroke="black" stroke-width="1.35443"/>
<path d="M49.2606 81.5722C26.2723 111.546 6.84175 117.725 0 117.068V161.456C0 168.936 6.06399 175 13.5443 175H493.101C501.33 175 508 168.33 508 160.101V16.4973C506.974 19.7839 501.021 25.5683 485.422 22.4132C465.923 18.4692 423.846 -28.858 380.743 31.287C337.64 91.4321 323.273 71.7124 286.327 39.1749C249.382 6.63741 225.778 30.301 198.069 65.7965C175.901 94.1928 134.783 78.9429 116.994 67.7684C103.995 59.8806 72.2489 51.5983 49.2606 81.5722Z" fill="url(#paint0_linear_241_110)"/>
<defs>
<linearGradient id="paint0_linear_241_110" x1="254" y1="1" x2="251.943" y2="215.781" gradientUnits="userSpaceOnUse">
<stop stop-color="#39FAA0" stop-opacity="0.42"/>
<stop offset="0.817708" stop-color="white" stop-opacity="0"/>
</linearGradient>
</defs>
</svg>
