<svg width="467" height="211" viewBox="0 0 467 211" fill="none" xmlns="http://www.w3.org/2000/svg">
<rect x="0.293945" width="466.44" height="211" rx="6.47548" fill="#EFFFF8"/>
<rect x="12.462" y="11" width="441.09" height="187" fill="white"/>
<rect width="1.2951" height="152.821" transform="translate(43.9202 22.0657)" fill="#F2F3F5"/>
<path d="M41.5294 60.8817V68.8271H39.961V62.6897L38.0768 63.2887V62.0525L41.3606 60.8817H41.5294ZM47.9337 60.8817V68.8271H46.3653V62.6897L44.4811 63.2887V62.0525L47.7649 60.8817H47.9337ZM53.788 59.64V61.2465H52.9384V59.64H53.788ZM53.6845 68.5331V69.998H52.835V68.5331H53.6845ZM54.2836 66.7468C54.2836 66.5399 54.2454 66.3638 54.1692 66.2186C54.0966 66.0734 53.9768 65.9445 53.8098 65.8319C53.6464 65.7194 53.4249 65.6105 53.1454 65.5052C52.6734 65.3237 52.2577 65.1312 51.8983 64.9279C51.5425 64.721 51.2648 64.465 51.0651 64.1601C50.8654 63.8515 50.7656 63.4612 50.7656 62.9892C50.7656 62.539 50.8727 62.1487 51.0869 61.8184C51.3011 61.488 51.597 61.2338 51.9745 61.0559C52.3557 60.8744 52.7987 60.7837 53.3033 60.7837C53.6882 60.7837 54.0367 60.8417 54.3489 60.9579C54.6611 61.0705 54.9298 61.2375 55.1549 61.4589C55.38 61.6768 55.5525 61.9436 55.6723 62.2595C55.7921 62.5753 55.852 62.9366 55.852 63.3432H54.289C54.289 63.1254 54.2654 62.9329 54.2182 62.7659C54.171 62.5989 54.102 62.4592 54.0113 62.3466C53.9241 62.2341 53.8189 62.1506 53.6954 62.0961C53.572 62.038 53.4358 62.009 53.287 62.009C53.0655 62.009 52.884 62.0525 52.7424 62.1397C52.6008 62.2268 52.4973 62.3448 52.432 62.4936C52.3703 62.6389 52.3394 62.8059 52.3394 62.9947C52.3394 63.1798 52.3721 63.3414 52.4374 63.4793C52.5064 63.6173 52.6244 63.7444 52.7914 63.8605C52.9584 63.9731 53.1871 64.0893 53.4776 64.2091C53.9496 64.3906 54.3634 64.5867 54.7192 64.7972C55.075 65.0078 55.3528 65.2656 55.5525 65.5705C55.7521 65.8755 55.852 66.264 55.852 66.7359C55.852 67.2043 55.7431 67.6037 55.5252 67.934C55.3074 68.2608 55.0024 68.5113 54.6103 68.6856C54.2182 68.8562 53.7644 68.9415 53.2489 68.9415C52.9149 68.9415 52.5827 68.8979 52.2523 68.8108C51.9219 68.72 51.6224 68.5748 51.3537 68.3751C51.0851 68.1755 50.8708 67.9104 50.7111 67.5801C50.5514 67.246 50.4715 66.8358 50.4715 66.3493H52.0399C52.0399 66.6143 52.0744 66.8358 52.1434 67.0137C52.2123 67.188 52.3031 67.3277 52.4156 67.433C52.5318 67.5347 52.6625 67.6073 52.8077 67.6508C52.953 67.6944 53.1 67.7162 53.2489 67.7162C53.4812 67.7162 53.6718 67.6744 53.8207 67.5909C53.9732 67.5074 54.0875 67.3931 54.1638 67.2479C54.2436 67.099 54.2836 66.932 54.2836 66.7468Z" fill="#6B7A99"/>
<path d="M43.2655 182.326V190.271H41.6971V184.134L39.8128 184.733V183.497L43.0967 182.326H43.2655ZM47.5949 188.746L48.8202 184.379H49.8168L49.4955 186.094L48.2702 190.271H47.437L47.5949 188.746ZM46.9741 184.379L47.8509 188.741L47.9326 190.271H46.9523L45.4601 184.379H46.9741ZM50.9387 188.67L51.7937 184.379H53.313L51.8209 190.271H50.8461L50.9387 188.67ZM49.953 184.379L51.1728 188.714L51.3416 190.271H50.503L49.2777 186.1L48.9673 184.379H49.953Z" fill="#ADB8CC"/>
<g filter="url(#filter0_d_242_112)">
<rect x="39.5017" y="94.8042" width="11.1531" height="11.1531" rx="5.57653" fill="#29CC39"/>
<rect x="39.5017" y="94.8042" width="11.1531" height="11.1531" rx="5.57653" stroke="white" stroke-width="1.85884"/>
</g>
<rect width="1.2951" height="154.117" transform="translate(111.996 20.7708)" fill="#F2F3F5"/>
<g filter="url(#filter1_d_242_112)">
<rect x="106.816" y="78.5073" width="11.1531" height="11.1531" rx="5.57653" fill="#29CC39"/>
<rect x="106.816" y="78.5073" width="11.1531" height="11.1531" rx="5.57653" stroke="white" stroke-width="1.85884"/>
</g>
<path d="M110.171 189.046V190.271H104.747V189.226L107.312 186.475C107.57 186.189 107.773 185.936 107.922 185.719C108.071 185.497 108.178 185.299 108.244 185.125C108.313 184.947 108.347 184.778 108.347 184.618C108.347 184.379 108.307 184.174 108.227 184.003C108.147 183.829 108.029 183.694 107.873 183.6C107.721 183.506 107.532 183.459 107.307 183.459C107.067 183.459 106.86 183.517 106.686 183.633C106.516 183.749 106.385 183.911 106.294 184.117C106.207 184.324 106.163 184.559 106.163 184.82H104.589C104.589 184.348 104.702 183.916 104.927 183.524C105.152 183.128 105.47 182.814 105.88 182.582C106.29 182.346 106.777 182.228 107.34 182.228C107.895 182.228 108.363 182.319 108.745 182.5C109.13 182.678 109.42 182.936 109.616 183.273C109.816 183.607 109.916 184.007 109.916 184.471C109.916 184.733 109.874 184.989 109.79 185.239C109.707 185.486 109.587 185.733 109.431 185.98C109.278 186.223 109.093 186.47 108.875 186.721C108.658 186.971 108.416 187.231 108.151 187.499L106.773 189.046H110.171ZM112.9 188.746L114.125 184.379H115.122L114.8 186.094L113.575 190.271H112.742L112.9 188.746ZM112.279 184.379L113.156 188.741L113.237 190.271H112.257L110.765 184.379H112.279ZM116.244 188.67L117.099 184.379H118.618L117.126 190.271H116.151L116.244 188.67ZM115.258 184.379L116.478 188.714L116.647 190.271H115.808L114.583 186.1L114.272 184.379H115.258Z" fill="#ADB8CC"/>
<path d="M107.98 42.5504V50.4958H106.412V44.3584L104.527 44.9574V43.7212L107.811 42.5504H107.98ZM115.985 49.2705V50.4958H110.561V49.4502L113.126 46.7001C113.384 46.4133 113.587 46.161 113.736 45.9431C113.885 45.7217 113.992 45.5238 114.057 45.3495C114.126 45.1716 114.161 45.0028 114.161 44.8431C114.161 44.6035 114.121 44.3983 114.041 44.2277C113.961 44.0534 113.843 43.9191 113.687 43.8247C113.535 43.7303 113.346 43.6831 113.121 43.6831C112.881 43.6831 112.674 43.7412 112.5 43.8574C112.329 43.9736 112.199 44.1351 112.108 44.3421C112.021 44.549 111.977 44.7832 111.977 45.0446H110.403C110.403 44.5726 110.516 44.1406 110.741 43.7485C110.966 43.3527 111.284 43.0387 111.694 42.8063C112.104 42.5703 112.591 42.4524 113.153 42.4524C113.709 42.4524 114.177 42.5431 114.559 42.7246C114.943 42.9025 115.234 43.1603 115.43 43.498C115.63 43.832 115.729 44.2313 115.729 44.696C115.729 44.9574 115.688 45.2134 115.604 45.4639C115.521 45.7108 115.401 45.9577 115.245 46.2045C115.092 46.4478 114.907 46.6947 114.689 46.9452C114.471 47.1957 114.23 47.4553 113.965 47.7239L112.587 49.2705H115.985ZM120.239 41.3087V42.9152H119.389V41.3087H120.239ZM120.135 50.2018V51.6667H119.285V50.2018H120.135ZM120.734 48.4155C120.734 48.2086 120.696 48.0325 120.62 47.8873C120.547 47.7421 120.427 47.6132 120.26 47.5006C120.097 47.3881 119.875 47.2792 119.596 47.1739C119.124 46.9924 118.708 46.7999 118.349 46.5966C117.993 46.3897 117.715 46.1337 117.516 45.8288C117.316 45.5202 117.216 45.1299 117.216 44.6579C117.216 44.2077 117.323 43.8174 117.537 43.4871C117.752 43.1567 118.047 42.9025 118.425 42.7246C118.806 42.5431 119.249 42.4524 119.754 42.4524C120.139 42.4524 120.487 42.5104 120.799 42.6266C121.112 42.7392 121.38 42.9062 121.605 43.1276C121.831 43.3455 122.003 43.6123 122.123 43.9282C122.243 44.244 122.302 44.6053 122.302 45.0119H120.74C120.74 44.7941 120.716 44.6016 120.669 44.4346C120.622 44.2676 120.553 44.1279 120.462 44.0153C120.375 43.9028 120.269 43.8193 120.146 43.7648C120.022 43.7067 119.886 43.6777 119.737 43.6777C119.516 43.6777 119.334 43.7212 119.193 43.8084C119.051 43.8955 118.948 44.0135 118.882 44.1623C118.821 44.3076 118.79 44.4746 118.79 44.6634C118.79 44.8485 118.823 45.0101 118.888 45.148C118.957 45.286 119.075 45.4131 119.242 45.5292C119.409 45.6418 119.638 45.758 119.928 45.8778C120.4 46.0593 120.814 46.2554 121.17 46.4659C121.526 46.6765 121.803 46.9343 122.003 47.2392C122.203 47.5442 122.302 47.9327 122.302 48.4046C122.302 48.873 122.194 49.2724 121.976 49.6027C121.758 49.9295 121.453 50.18 121.061 50.3543C120.669 50.5249 120.215 50.6102 119.699 50.6102C119.365 50.6102 119.033 50.5666 118.703 50.4795C118.372 50.3887 118.073 50.2435 117.804 50.0438C117.536 49.8442 117.321 49.5791 117.162 49.2488C117.002 48.9147 116.922 48.5045 116.922 48.018H118.49C118.49 48.283 118.525 48.5045 118.594 48.6824C118.663 48.8567 118.754 48.9964 118.866 49.1017C118.982 49.2034 119.113 49.276 119.258 49.3195C119.403 49.3631 119.551 49.3849 119.699 49.3849C119.932 49.3849 120.122 49.3431 120.271 49.2596C120.424 49.1761 120.538 49.0618 120.614 48.9166C120.694 48.7677 120.734 48.6007 120.734 48.4155Z" fill="#6B7A99"/>
<rect width="1.2951" height="154.117" transform="translate(177.632 20.7708)" fill="#F2F3F5"/>
<path d="M175.476 189.046V190.271H170.052V189.226L172.617 186.475C172.875 186.189 173.078 185.936 173.227 185.719C173.376 185.497 173.483 185.299 173.548 185.125C173.617 184.947 173.652 184.778 173.652 184.618C173.652 184.379 173.612 184.174 173.532 184.003C173.452 183.829 173.334 183.694 173.178 183.6C173.026 183.506 172.837 183.459 172.612 183.459C172.372 183.459 172.165 183.517 171.991 183.633C171.82 183.749 171.689 183.911 171.599 184.117C171.512 184.324 171.468 184.559 171.468 184.82H169.894C169.894 184.348 170.007 183.916 170.232 183.524C170.457 183.128 170.775 182.814 171.185 182.582C171.595 182.346 172.082 182.228 172.644 182.228C173.2 182.228 173.668 182.319 174.049 182.5C174.434 182.678 174.725 182.936 174.921 183.273C175.12 183.607 175.22 184.007 175.22 184.471C175.22 184.733 175.178 184.989 175.095 185.239C175.011 185.486 174.892 185.733 174.736 185.98C174.583 186.223 174.398 186.47 174.18 186.721C173.962 186.971 173.721 187.231 173.456 187.499L172.078 189.046H175.476ZM178.205 188.746L179.43 184.379H180.426L180.105 186.094L178.88 190.271H178.047L178.205 188.746ZM177.584 184.379L178.46 188.741L178.542 190.271H177.562L176.07 184.379H177.584ZM181.548 188.67L182.403 184.379H183.923L182.43 190.271H181.456L181.548 188.67ZM180.563 184.379L181.782 188.714L181.951 190.271H181.113L179.887 186.1L179.577 184.379H180.563Z" fill="#ADB8CC"/>
<path d="M174.921 76.8H175.024C175.46 76.8 175.834 76.7474 176.146 76.6421C176.462 76.5332 176.721 76.3771 176.925 76.1738C177.128 75.9705 177.279 75.7218 177.377 75.4277C177.475 75.13 177.524 74.7923 177.524 74.4148V72.9117C177.524 72.6249 177.495 72.3726 177.437 72.1547C177.382 71.9369 177.302 71.7572 177.197 71.6156C177.095 71.4704 176.975 71.3615 176.837 71.2889C176.703 71.2162 176.554 71.1799 176.391 71.1799C176.217 71.1799 176.062 71.2235 175.928 71.3106C175.794 71.3941 175.679 71.5085 175.585 71.6537C175.494 71.7989 175.423 71.966 175.373 72.1547C175.325 72.3399 175.302 72.5341 175.302 72.7374C175.302 72.9408 175.325 73.135 175.373 73.3201C175.42 73.5017 175.491 73.6632 175.585 73.8048C175.679 73.9428 175.797 74.0535 175.939 74.137C176.08 74.2169 176.248 74.2568 176.44 74.2568C176.625 74.2568 176.79 74.2223 176.935 74.1534C177.084 74.0808 177.21 73.9864 177.311 73.8702C177.417 73.754 177.496 73.6251 177.551 73.4835C177.609 73.3419 177.638 73.1985 177.638 73.0533L178.155 73.3365C178.155 73.5906 178.101 73.8411 177.992 74.088C177.883 74.3349 177.731 74.56 177.535 74.7633C177.342 74.963 177.119 75.1227 176.865 75.2425C176.611 75.3623 176.338 75.4222 176.048 75.4222C175.678 75.4222 175.349 75.3551 175.062 75.2207C174.775 75.0828 174.532 74.894 174.332 74.6544C174.136 74.4111 173.987 74.1279 173.886 73.8048C173.784 73.4817 173.733 73.1314 173.733 72.7538C173.733 72.3689 173.795 72.0077 173.919 71.6701C174.046 71.3324 174.225 71.0347 174.458 70.7769C174.694 70.5192 174.975 70.3177 175.302 70.1725C175.632 70.0236 175.999 69.9492 176.402 69.9492C176.805 69.9492 177.171 70.0272 177.502 70.1833C177.832 70.3395 178.115 70.5609 178.351 70.8477C178.587 71.1309 178.769 71.4704 178.896 71.8661C179.027 72.2618 179.092 72.7011 179.092 73.184V73.7286C179.092 74.2441 179.036 74.7234 178.923 75.1663C178.814 75.6092 178.649 76.0104 178.428 76.3698C178.21 76.7256 177.938 77.0306 177.611 77.2847C177.288 77.5389 176.912 77.7331 176.483 77.8674C176.055 78.0018 175.576 78.0689 175.046 78.0689H174.921V76.8ZM183.487 68.8056V70.4121H182.637V68.8056H183.487ZM183.383 77.6986V79.1635H182.534V77.6986H183.383ZM183.982 75.9124C183.982 75.7054 183.944 75.5293 183.868 75.3841C183.795 75.2389 183.676 75.11 183.509 74.9975C183.345 74.8849 183.124 74.776 182.844 74.6707C182.372 74.4892 181.957 74.2968 181.597 74.0935C181.241 73.8865 180.964 73.6306 180.764 73.3256C180.564 73.017 180.464 72.6267 180.464 72.1547C180.464 71.7046 180.571 71.3143 180.786 70.9839C181 70.6535 181.296 70.3994 181.673 70.2215C182.055 70.0399 182.498 69.9492 183.002 69.9492C183.387 69.9492 183.736 70.0073 184.048 70.1234C184.36 70.236 184.629 70.403 184.854 70.6245C185.079 70.8423 185.251 71.1091 185.371 71.425C185.491 71.7409 185.551 72.1021 185.551 72.5087H183.988C183.988 72.2909 183.964 72.0985 183.917 71.9315C183.87 71.7645 183.801 71.6247 183.71 71.5121C183.623 71.3996 183.518 71.3161 183.394 71.2616C183.271 71.2035 183.135 71.1745 182.986 71.1745C182.764 71.1745 182.583 71.2181 182.441 71.3052C182.3 71.3923 182.196 71.5103 182.131 71.6592C182.069 71.8044 182.038 71.9714 182.038 72.1602C182.038 72.3453 182.071 72.5069 182.136 72.6449C182.205 72.7828 182.323 72.9099 182.49 73.0261C182.657 73.1386 182.886 73.2548 183.176 73.3746C183.648 73.5561 184.062 73.7522 184.418 73.9628C184.774 74.1733 185.052 74.4311 185.251 74.7361C185.451 75.041 185.551 75.4295 185.551 75.9015C185.551 76.3698 185.442 76.7692 185.224 77.0996C185.006 77.4263 184.701 77.6768 184.309 77.8511C183.917 78.0217 183.463 78.107 182.948 78.107C182.614 78.107 182.281 78.0635 181.951 77.9763C181.621 77.8856 181.321 77.7404 181.053 77.5407C180.784 77.341 180.57 77.076 180.41 76.7456C180.25 76.4116 180.17 76.0013 180.17 75.5148H181.739C181.739 75.7799 181.773 76.0013 181.842 76.1792C181.911 76.3535 182.002 76.4933 182.114 76.5985C182.231 76.7002 182.361 76.7728 182.507 76.8164C182.652 76.8599 182.799 76.8817 182.948 76.8817C183.18 76.8817 183.371 76.84 183.52 76.7565C183.672 76.673 183.786 76.5586 183.863 76.4134C183.942 76.2645 183.982 76.0975 183.982 75.9124Z" fill="#6B7A99"/>
<g filter="url(#filter2_d_242_112)">
<rect x="176.019" y="103.054" width="10.0553" height="9.90355" rx="4.95178" fill="#29CC39"/>
<rect x="176.019" y="103.054" width="10.0553" height="9.90355" rx="4.95178" stroke="white" stroke-width="1.85884"/>
</g>
<path opacity="0.7" d="M45.9434 100.433L112.979 83.9274L180.014 108.686L245.608 69.8906" stroke="#29CC39" stroke-width="1.85884" stroke-linecap="round" stroke-linejoin="round"/>
<rect width="1.2951" height="154.117" transform="translate(243.125 20.7708)" fill="#F2F3F5"/>
<g filter="url(#filter3_d_242_112)">
<rect x="239.01" y="61.0557" width="11.1531" height="11.1531" rx="5.57653" fill="#29CC39"/>
<rect x="239.01" y="61.0557" width="11.1531" height="11.1531" rx="5.57653" stroke="white" stroke-width="1.85884"/>
</g>
<path d="M242.992 187.309V188.539H237.279L237.203 187.586L240.509 182.342H241.756L240.405 184.602L238.76 187.309H242.992ZM242.093 182.342V190.271H240.525V182.342H242.093ZM245.916 189.013L247.496 182.342H248.378L248.579 183.453L246.897 190.271H245.949L245.916 189.013ZM245.105 182.342L246.412 189.013L246.303 190.271H245.246L243.487 182.342H245.105ZM249.968 188.986L251.259 182.342H252.876L251.123 190.271H250.066L249.968 188.986ZM248.873 182.342L250.464 189.04L250.42 190.271H249.472L247.779 183.448L247.997 182.342H248.873Z" fill="#ADB8CC"/>
<path d="M238.589 27.6563V35.6018H237.021V29.4644L235.137 30.0634V28.8272L238.421 27.6563H238.589ZM242.647 31.9912L241.394 31.6917L241.846 27.6727H246.301V28.9416H243.137L242.941 30.7006C243.046 30.6388 243.206 30.5735 243.42 30.5045C243.634 30.4319 243.874 30.3956 244.139 30.3956C244.524 30.3956 244.865 30.4555 245.163 30.5753C245.46 30.6951 245.713 30.8694 245.92 31.0981C246.13 31.3268 246.29 31.6064 246.399 31.9368C246.508 32.2671 246.562 32.6411 246.562 33.0586C246.562 33.4108 246.508 33.7466 246.399 34.0661C246.29 34.3819 246.125 34.6651 245.903 34.9156C245.682 35.1625 245.404 35.3567 245.07 35.4983C244.736 35.6399 244.34 35.7107 243.883 35.7107C243.542 35.7107 243.211 35.6599 242.892 35.5582C242.576 35.4566 242.291 35.3059 242.037 35.1062C241.786 34.9066 241.585 34.6651 241.432 34.3819C241.283 34.0951 241.205 33.7684 241.198 33.4017H242.756C242.777 33.6268 242.835 33.821 242.93 33.9844C243.028 34.1441 243.157 34.2676 243.316 34.3547C243.476 34.4418 243.663 34.4854 243.877 34.4854C244.077 34.4854 244.248 34.4473 244.389 34.371C244.531 34.2948 244.645 34.1895 244.732 34.0552C244.82 33.9172 244.883 33.7575 244.923 33.576C244.967 33.3908 244.988 33.1911 244.988 32.9769C244.988 32.7627 244.963 32.5685 244.912 32.3942C244.861 32.2199 244.783 32.0693 244.678 31.9422C244.573 31.8151 244.438 31.7171 244.275 31.6481C244.115 31.5792 243.928 31.5447 243.714 31.5447C243.424 31.5447 243.198 31.59 243.039 31.6808C242.883 31.7716 242.752 31.875 242.647 31.9912ZM250.848 26.4147V28.0212H249.999V26.4147H250.848ZM250.745 35.3077V36.7727H249.895V35.3077H250.745ZM251.344 33.5215C251.344 33.3146 251.306 33.1385 251.229 32.9933C251.157 32.848 251.037 32.7191 250.87 32.6066C250.706 32.4941 250.485 32.3851 250.205 32.2798C249.733 32.0983 249.318 31.9059 248.958 31.7026C248.603 31.4956 248.325 31.2397 248.125 30.9347C247.925 30.6261 247.826 30.2358 247.826 29.7639C247.826 29.3137 247.933 28.9234 248.147 28.593C248.361 28.2626 248.657 28.0085 249.035 27.8306C249.416 27.6491 249.859 27.5583 250.363 27.5583C250.748 27.5583 251.097 27.6164 251.409 27.7326C251.721 27.8451 251.99 28.0121 252.215 28.2336C252.44 28.4514 252.613 28.7183 252.732 29.0341C252.852 29.35 252.912 29.7112 252.912 30.1179H251.349C251.349 29.9 251.325 29.7076 251.278 29.5406C251.231 29.3736 251.162 29.2338 251.071 29.1213C250.984 29.0087 250.879 28.9252 250.755 28.8708C250.632 28.8127 250.496 28.7836 250.347 28.7836C250.126 28.7836 249.944 28.8272 249.802 28.9143C249.661 29.0015 249.557 29.1194 249.492 29.2683C249.43 29.4135 249.399 29.5805 249.399 29.7693C249.399 29.9545 249.432 30.116 249.497 30.254C249.566 30.392 249.684 30.519 249.851 30.6352C250.018 30.7478 250.247 30.8639 250.538 30.9837C251.01 31.1653 251.424 31.3613 251.779 31.5719C252.135 31.7825 252.413 32.0402 252.613 32.3452C252.812 32.6502 252.912 33.0386 252.912 33.5106C252.912 33.9789 252.803 34.3783 252.585 34.7087C252.367 35.0354 252.062 35.2859 251.67 35.4602C251.278 35.6309 250.824 35.7162 250.309 35.7162C249.975 35.7162 249.643 35.6726 249.312 35.5855C248.982 35.4947 248.682 35.3495 248.414 35.1498C248.145 34.9501 247.931 34.6851 247.771 34.3547C247.611 34.0207 247.532 33.6104 247.532 33.124H249.1C249.1 33.389 249.134 33.6104 249.203 33.7883C249.272 33.9626 249.363 34.1024 249.476 34.2077C249.592 34.3093 249.723 34.3819 249.868 34.4255C250.013 34.4691 250.16 34.4909 250.309 34.4909C250.541 34.4909 250.732 34.4491 250.881 34.3656C251.033 34.2821 251.148 34.1677 251.224 34.0225C251.304 33.8737 251.344 33.7067 251.344 33.5215Z" fill="#6B7A99"/>
<rect x="289" y="24" width="148" height="163" rx="10" fill="#D9D9D9"/>
<defs>
<filter id="filter0_d_242_112" x="33.9252" y="91.0865" width="22.3062" height="22.3062" filterUnits="userSpaceOnUse" color-interpolation-filters="sRGB">
<feFlood flood-opacity="0" result="BackgroundImageFix"/>
<feColorMatrix in="SourceAlpha" type="matrix" values="0 0 0 0 0 0 0 0 0 0 0 0 0 0 0 0 0 0 127 0" result="hardAlpha"/>
<feOffset dy="1.85884"/>
<feGaussianBlur stdDeviation="2.32356"/>
<feColorMatrix type="matrix" values="0 0 0 0 0.160784 0 0 0 0 0.8 0 0 0 0 0.223529 0 0 0 0.15 0"/>
<feBlend mode="normal" in2="BackgroundImageFix" result="effect1_dropShadow_242_112"/>
<feBlend mode="normal" in="SourceGraphic" in2="effect1_dropShadow_242_112" result="shape"/>
</filter>
<filter id="filter1_d_242_112" x="101.24" y="74.7896" width="22.3062" height="22.3062" filterUnits="userSpaceOnUse" color-interpolation-filters="sRGB">
<feFlood flood-opacity="0" result="BackgroundImageFix"/>
<feColorMatrix in="SourceAlpha" type="matrix" values="0 0 0 0 0 0 0 0 0 0 0 0 0 0 0 0 0 0 127 0" result="hardAlpha"/>
<feOffset dy="1.85884"/>
<feGaussianBlur stdDeviation="2.32356"/>
<feColorMatrix type="matrix" values="0 0 0 0 0.160784 0 0 0 0 0.8 0 0 0 0 0.223529 0 0 0 0.15 0"/>
<feBlend mode="normal" in2="BackgroundImageFix" result="effect1_dropShadow_242_112"/>
<feBlend mode="normal" in="SourceGraphic" in2="effect1_dropShadow_242_112" result="shape"/>
</filter>
<filter id="filter2_d_242_112" x="170.442" y="99.3362" width="21.2084" height="21.0567" filterUnits="userSpaceOnUse" color-interpolation-filters="sRGB">
<feFlood flood-opacity="0" result="BackgroundImageFix"/>
<feColorMatrix in="SourceAlpha" type="matrix" values="0 0 0 0 0 0 0 0 0 0 0 0 0 0 0 0 0 0 127 0" result="hardAlpha"/>
<feOffset dy="1.85884"/>
<feGaussianBlur stdDeviation="2.32356"/>
<feColorMatrix type="matrix" values="0 0 0 0 0.160784 0 0 0 0 0.8 0 0 0 0 0.223529 0 0 0 0.15 0"/>
<feBlend mode="normal" in2="BackgroundImageFix" result="effect1_dropShadow_242_112"/>
<feBlend mode="normal" in="SourceGraphic" in2="effect1_dropShadow_242_112" result="shape"/>
</filter>
<filter id="filter3_d_242_112" x="233.434" y="57.338" width="22.3062" height="22.3062" filterUnits="userSpaceOnUse" color-interpolation-filters="sRGB">
<feFlood flood-opacity="0" result="BackgroundImageFix"/>
<feColorMatrix in="SourceAlpha" type="matrix" values="0 0 0 0 0 0 0 0 0 0 0 0 0 0 0 0 0 0 127 0" result="hardAlpha"/>
<feOffset dy="1.85884"/>
<feGaussianBlur stdDeviation="2.32356"/>
<feColorMatrix type="matrix" values="0 0 0 0 0.160784 0 0 0 0 0.8 0 0 0 0 0.223529 0 0 0 0.15 0"/>
<feBlend mode="normal" in2="BackgroundImageFix" result="effect1_dropShadow_242_112"/>
<feBlend mode="normal" in="SourceGraphic" in2="effect1_dropShadow_242_112" result="shape"/>
</filter>
</defs>
</svg>
