<svg width="24" height="36" viewBox="0 0 24 36" fill="none" xmlns="http://www.w3.org/2000/svg">
<path fill-rule="evenodd" clip-rule="evenodd" d="M5.00007 32C4.29581 32 3.82481 31.2979 4.05985 30.6586L4.10564 30.5528L5.26106 28.242C5.69845 27.3672 5.94714 26.4115 5.9925 25.4369L6.00007 25.1115V22C6.00007 19.0269 8.16245 16.5589 11.0003 16.0829L11.0001 15C11.0001 14.4477 11.4478 14 12.0001 14C12.5524 14 13.0001 14.4477 13.0001 15L13.0009 16.0831C15.7594 16.5463 17.8794 18.8917 17.9951 21.7535L18.0001 22V25.1115C18.0001 26.0895 18.205 27.0555 18.6003 27.9474L18.7391 28.242L19.8945 30.5528C20.2094 31.1827 19.7921 31.918 19.1152 31.9936L19.0001 32H14.0001C14.0001 33.1046 13.1046 34 12.0001 34C10.8955 34 10.0001 33.1046 10.0001 32H5.00007ZM12.0001 18C9.85787 18 8.10899 19.684 8.00496 21.8004L8.00007 22V25.1115C8.00007 26.3922 7.72672 27.6569 7.19987 28.8213L7.04991 29.1364L6.6181 30H17.382L16.9502 29.1364C16.3774 27.9908 16.0564 26.7374 16.0068 25.4603L16.0001 25.1115V22C16.0001 19.7909 14.2092 18 12.0001 18Z" fill="white"/>
<circle cx="18" cy="6" r="6" fill="#BBF7D0"/>
<circle cx="18" cy="6" r="3" fill="#22C55E"/>
</svg>
