<svg width="39" height="36" viewBox="0 0 39 36" fill="none" xmlns="http://www.w3.org/2000/svg">
<g filter="url(#filter0_d_233_100)">
<rect x="4" width="31" height="28" rx="6" fill="#E0F9FC"/>
</g>
<path d="M23.6305 9.40694C23.8088 9.40694 23.9534 9.25382 23.9534 9.06573V8.52694C23.9534 8.33847 23.8088 8.18591 23.6305 8.18591H15.9042C15.7257 8.18591 15.5813 8.33847 15.5813 8.52694V9.06573C15.5813 9.25382 15.7257 9.40675 15.9042 9.40675H16.1046V18.1277H15.9042C15.7257 18.1277 15.5813 18.2802 15.5813 18.4687V19.0073C15.5813 19.1958 15.7257 19.3487 15.9042 19.3487H23.6303C23.8088 19.3487 23.9534 19.1958 23.9534 19.0073V18.4687C23.9534 18.2802 23.8088 18.1277 23.6305 18.1277H23.4301V9.40694H23.6305ZM16.4533 18.1279V9.40694H16.7814C16.6967 9.40694 16.6278 9.46926 16.6278 9.54629V9.96489C16.6278 10.0419 16.6959 10.1039 16.7804 10.1044C16.7804 11.6466 17.0331 13.1454 18.8605 13.6618L18.9507 13.6897C19.0297 13.7143 19.1242 13.7433 19.1725 13.7673C19.1242 13.7909 19.0308 13.82 18.9522 13.8441L18.866 13.8711C17.0333 14.3894 16.7806 15.8881 16.7806 17.4302C16.6963 17.4307 16.628 17.4929 16.628 17.5695V17.9881C16.628 18.0652 16.6967 18.1279 16.7816 18.1279H16.4533ZM20.4801 14.1775L20.5741 14.2066C21.8691 14.5727 22.3747 15.4056 22.404 17.2557H19.9226C19.8977 16.3954 19.8353 14.1984 19.8353 13.7673C19.8353 13.6213 20.1116 13.4164 20.2387 13.3433C20.775 13.0335 21.465 12.4207 21.465 11.7829H18.0693C18.0693 12.4207 18.7593 13.0335 19.2957 13.3433C19.4224 13.4166 19.699 13.6213 19.699 13.7673C19.699 14.2097 19.6368 16.3976 19.6119 17.2557H17.1307C17.1598 15.4062 17.666 14.5729 18.9659 14.2051L19.0551 14.1777C19.305 14.1007 19.5409 14.0278 19.5409 13.7675C19.5409 13.5068 19.3042 13.4337 19.0532 13.3567L18.9604 13.3279C17.6656 12.9617 17.16 12.129 17.1309 10.2791H22.4044C22.3751 12.129 21.8691 12.9623 20.5695 13.3295L20.4826 13.3565C20.2314 13.4335 19.9942 13.5067 19.9942 13.7675C19.9938 14.0276 20.2301 14.1005 20.4801 14.1775ZM23.0812 18.1279H22.7535C22.838 18.1279 22.9069 18.0652 22.9069 17.9881V17.5695C22.9069 17.4927 22.8384 17.4307 22.7541 17.4304C22.7541 15.8881 22.5014 14.3891 20.674 13.8726L20.5827 13.8443C20.5043 13.8201 20.4105 13.7911 20.3621 13.7675C20.4107 13.7435 20.5054 13.7145 20.5846 13.6899L20.6689 13.6637C22.5014 13.1457 22.7541 11.6469 22.7541 10.1046C22.8382 10.1042 22.9069 10.0421 22.9069 9.96489V9.54629C22.9069 9.46926 22.8382 9.40694 22.7535 9.40694H23.0812V18.1279Z" fill="black"/>
<path d="M29.7674 14C29.7674 16.3759 28.9014 18.6704 27.3315 20.4538C25.7616 22.2372 23.5955 23.3873 21.2387 23.6886C18.8819 23.9899 16.4962 23.4218 14.5281 22.0908C12.56 20.7597 11.1445 18.7569 10.5467 16.4574C9.94897 14.1579 10.2099 11.7193 11.2806 9.59832C12.3513 7.4773 14.1584 5.81929 16.3636 4.93472C18.5687 4.05015 21.0207 3.99969 23.2603 4.79277C25.5 5.58586 27.3738 7.16811 28.5309 9.24327" stroke="black" stroke-width="0.465116" stroke-miterlimit="16"/>
<defs>
<filter id="filter0_d_233_100" x="0" y="0" width="39" height="36" filterUnits="userSpaceOnUse" color-interpolation-filters="sRGB">
<feFlood flood-opacity="0" result="BackgroundImageFix"/>
<feColorMatrix in="SourceAlpha" type="matrix" values="0 0 0 0 0 0 0 0 0 0 0 0 0 0 0 0 0 0 127 0" result="hardAlpha"/>
<feOffset dy="4"/>
<feGaussianBlur stdDeviation="2"/>
<feComposite in2="hardAlpha" operator="out"/>
<feColorMatrix type="matrix" values="0 0 0 0 0 0 0 0 0 0 0 0 0 0 0 0 0 0 0.04 0"/>
<feBlend mode="normal" in2="BackgroundImageFix" result="effect1_dropShadow_233_100"/>
<feBlend mode="normal" in="SourceGraphic" in2="effect1_dropShadow_233_100" result="shape"/>
</filter>
</defs>
</svg>
