<svg width="22" height="22" viewBox="0 0 22 22" fill="none" xmlns="http://www.w3.org/2000/svg">
<g clip-path="url(#clip0_104_390)">
<path d="M11 1.83337C5.93726 1.83337 1.83334 5.93729 1.83334 11C1.83334 16.0628 5.93726 20.1667 11 20.1667C16.0628 20.1667 20.1667 16.0628 20.1667 11C20.1667 5.93729 16.0628 1.83337 11 1.83337Z" stroke="#1662DA" stroke-width="2" stroke-linecap="round" stroke-linejoin="round"/>
<path d="M3.9151 16.8172C3.9151 16.8172 5.95835 14.2083 11 14.2083C16.0417 14.2083 18.0859 16.8172 18.0859 16.8172M11 11C11.7294 11 12.4288 10.7103 12.9446 10.1945C13.4603 9.67882 13.75 8.97935 13.75 8.25C13.75 7.52065 13.4603 6.82118 12.9446 6.30546C12.4288 5.78973 11.7294 5.5 11 5.5C10.2707 5.5 9.5712 5.78973 9.05547 6.30546C8.53975 6.82118 8.25002 7.52065 8.25002 8.25C8.25002 8.97935 8.53975 9.67882 9.05547 10.1945C9.5712 10.7103 10.2707 11 11 11Z" stroke="#1662DA" stroke-width="2" stroke-linecap="round" stroke-linejoin="round"/>
</g>
<defs>
<clipPath id="clip0_104_390">
<rect width="22" height="22" fill="white"/>
</clipPath>
</defs>
</svg>
