<svg width="27" height="26" viewBox="0 0 27 26" fill="none" xmlns="http://www.w3.org/2000/svg">
<rect width="26" height="26" rx="2.21897" transform="matrix(-1 0 0 1 26.1053 0)" fill="#93C5FD"/>
<path fill-rule="evenodd" clip-rule="evenodd" d="M14.313 10.4591L14.3591 10.4069C14.5591 10.2069 14.8737 10.1915 15.0914 10.3607L15.1436 10.4069L16.8079 12.0711L16.8308 12.0955V12.0955L16.8614 12.1331V12.1331L16.9012 12.1948V12.1948L16.9308 12.2574V12.2574L16.9505 12.3158V12.3158L16.9665 12.3978V12.3978L16.9703 12.4634L16.9688 12.5051V12.5051L16.9591 12.5747V12.5747L16.9427 12.6365V12.6365L16.9184 12.6981V12.6981L16.8893 12.7522V12.7522L16.8485 12.8103V12.8103L16.8079 12.8556L15.1436 14.5198C14.927 14.7365 14.5757 14.7365 14.3591 14.5198C14.1591 14.3199 14.1437 14.0052 14.313 13.7876L14.3591 13.7353L15.0759 13.0181H10.8682C10.5618 13.0181 10.3134 12.7697 10.3134 12.4634C10.3134 12.157 10.5618 11.9086 10.8682 11.9086H15.0759L14.3591 11.1914C14.1591 10.9914 14.1437 10.6767 14.313 10.4591L14.3591 10.4069L14.313 10.4591Z" fill="white"/>
</svg>
