<svg width="29" height="24" viewBox="0 0 29 24" fill="none" xmlns="http://www.w3.org/2000/svg">
<path d="M7.25001 22C6.58543 22 6.0167 21.8043 5.54384 21.413C5.07018 21.021 4.83334 20.55 4.83334 20V8C4.83334 7.45 5.07018 6.97933 5.54384 6.588C6.0167 6.196 6.58543 6 7.25001 6H9.66668C9.66668 4.9 10.1399 3.95833 11.0865 3.175C12.033 2.39167 13.1708 2 14.5 2C15.8292 2 16.967 2.39167 17.9136 3.175C18.8601 3.95833 19.3333 4.9 19.3333 6H21.75C22.4146 6 22.9837 6.196 23.4574 6.588C23.9302 6.97933 24.1667 7.45 24.1667 8V20C24.1667 20.55 23.9302 21.021 23.4574 21.413C22.9837 21.8043 22.4146 22 21.75 22H7.25001ZM7.25001 20H21.75V8H19.3333V10C19.3333 10.2833 19.2177 10.5207 18.9866 10.712C18.7546 10.904 18.4674 11 18.125 11C17.7826 11 17.4959 10.904 17.2647 10.712C17.0327 10.5207 16.9167 10.2833 16.9167 10V8H12.0833V10C12.0833 10.2833 11.9677 10.5207 11.7366 10.712C11.5046 10.904 11.2174 11 10.875 11C10.5326 11 10.2459 10.904 10.0147 10.712C9.78268 10.5207 9.66668 10.2833 9.66668 10V8H7.25001V20ZM12.0833 6H16.9167C16.9167 5.45 16.6802 4.97933 16.2074 4.588C15.7337 4.196 15.1646 4 14.5 4C13.8354 4 13.2667 4.196 12.7938 4.588C12.3202 4.97933 12.0833 5.45 12.0833 6Z" fill="#1662DA"/>
</svg>
