<svg width="21" height="20" viewBox="0 0 21 20" fill="none" xmlns="http://www.w3.org/2000/svg">
<path d="M3.25001 20C2.58543 20 2.0167 19.8043 1.54384 19.413C1.07018 19.021 0.833344 18.55 0.833344 18V6C0.833344 5.45 1.07018 4.97933 1.54384 4.588C2.0167 4.196 2.58543 4 3.25001 4H5.66668C5.66668 2.9 6.13994 1.95833 7.08647 1.175C8.033 0.391667 9.17084 0 10.5 0C11.8292 0 12.967 0.391667 13.9136 1.175C14.8601 1.95833 15.3333 2.9 15.3333 4H17.75C18.4146 4 18.9837 4.196 19.4574 4.588C19.9302 4.97933 20.1667 5.45 20.1667 6V18C20.1667 18.55 19.9302 19.021 19.4574 19.413C18.9837 19.8043 18.4146 20 17.75 20H3.25001ZM3.25001 18H17.75V6H15.3333V8C15.3333 8.28333 15.2177 8.52067 14.9866 8.712C14.7546 8.904 14.4674 9 14.125 9C13.7826 9 13.4959 8.904 13.2647 8.712C13.0327 8.52067 12.9167 8.28333 12.9167 8V6H8.08334V8C8.08334 8.28333 7.96775 8.52067 7.73655 8.712C7.50455 8.904 7.21737 9 6.87501 9C6.53265 9 6.24587 8.904 6.01468 8.712C5.78268 8.52067 5.66668 8.28333 5.66668 8V6H3.25001V18ZM8.08334 4H12.9167C12.9167 3.45 12.6802 2.97933 12.2074 2.588C11.7337 2.196 11.1646 2 10.5 2C9.83543 2 9.26671 2.196 8.79384 2.588C8.32018 2.97933 8.08334 3.45 8.08334 4Z" fill="#1662DA"/>
</svg>
