<svg width="25" height="25" viewBox="0 0 25 25" fill="none" xmlns="http://www.w3.org/2000/svg">
<path d="M12.5 2.08337C6.75626 2.08337 2.08334 6.75629 2.08334 12.5V16.8157C2.08334 17.8823 3.01772 18.75 4.16668 18.75H5.20834C5.48461 18.75 5.74956 18.6403 5.94491 18.4449C6.14026 18.2496 6.25001 17.9846 6.25001 17.7084V12.3511C6.25001 12.0748 6.14026 11.8099 5.94491 11.6145C5.74956 11.4192 5.48461 11.3094 5.20834 11.3094H4.26251C4.84168 7.27817 8.31043 4.16671 12.5 4.16671C16.6896 4.16671 20.1583 7.27817 20.7375 11.3094H19.7917C19.5154 11.3094 19.2505 11.4192 19.0551 11.6145C18.8598 11.8099 18.75 12.0748 18.75 12.3511V18.75C18.75 19.899 17.8156 20.8334 16.6667 20.8334H14.5833V19.7917H10.4167V22.9167H16.6667C18.9646 22.9167 20.8333 21.048 20.8333 18.75C21.9823 18.75 22.9167 17.8823 22.9167 16.8157V12.5C22.9167 6.75629 18.2438 2.08337 12.5 2.08337Z" fill="#1662DA"/>
</svg>
