<svg width="21" height="21" viewBox="0 0 21 21" fill="none" xmlns="http://www.w3.org/2000/svg">
<path d="M10.5 0.083374C4.75626 0.083374 0.0833435 4.75629 0.0833435 10.5V14.8157C0.0833435 15.8823 1.01772 16.75 2.16668 16.75H3.20834C3.48461 16.75 3.74956 16.6403 3.94491 16.4449C4.14026 16.2496 4.25001 15.9846 4.25001 15.7084V10.3511C4.25001 10.0748 4.14026 9.80986 3.94491 9.61451C3.74956 9.41916 3.48461 9.30942 3.20834 9.30942H2.26251C2.84168 5.27817 6.31043 2.16671 10.5 2.16671C14.6896 2.16671 18.1583 5.27817 18.7375 9.30942H17.7917C17.5154 9.30942 17.2505 9.41916 17.0551 9.61451C16.8598 9.80986 16.75 10.0748 16.75 10.3511V16.75C16.75 17.899 15.8156 18.8334 14.6667 18.8334H12.5833V17.7917H8.41668V20.9167H14.6667C16.9646 20.9167 18.8333 19.048 18.8333 16.75C19.9823 16.75 20.9167 15.8823 20.9167 14.8157V10.5C20.9167 4.75629 16.2438 0.083374 10.5 0.083374Z" fill="#1662DA"/>
</svg>
