<svg width="39" height="36" viewBox="0 0 39 36" fill="none" xmlns="http://www.w3.org/2000/svg">
<g filter="url(#filter0_d_233_101)">
<rect x="4" width="31" height="28" rx="6" fill="#EEECFD"/>
</g>
<path d="M24.5605 9.81055L25.4395 10.6895L18.125 18.0039L14.5605 14.4395L15.4395 13.5605L18.125 16.2461L24.5605 9.81055ZM20 4C20.918 4 21.8034 4.11719 22.6562 4.35156C23.5091 4.58594 24.3066 4.92122 25.0488 5.35742C25.791 5.79362 26.4648 6.31445 27.0703 6.91992C27.6758 7.52539 28.1966 8.20247 28.6328 8.95117C29.069 9.69987 29.4043 10.4974 29.6387 11.3438C29.873 12.1901 29.9935 13.0755 30 14C30 14.918 29.8828 15.8034 29.6484 16.6562C29.4141 17.5091 29.0788 18.3066 28.6426 19.0488C28.2064 19.791 27.6855 20.4648 27.0801 21.0703C26.4746 21.6758 25.7975 22.1966 25.0488 22.6328C24.3001 23.069 23.5026 23.4043 22.6562 23.6387C21.8099 23.873 20.9245 23.9935 20 24C19.082 24 18.1966 23.8828 17.3438 23.6484C16.4909 23.4141 15.6934 23.0788 14.9512 22.6426C14.209 22.2064 13.5352 21.6855 12.9297 21.0801C12.3242 20.4746 11.8034 19.7975 11.3672 19.0488C10.931 18.3001 10.5957 17.5059 10.3613 16.666C10.127 15.8262 10.0065 14.9375 10 14C10 13.082 10.1172 12.1966 10.3516 11.3438C10.5859 10.4909 10.9212 9.69336 11.3574 8.95117C11.7936 8.20898 12.3145 7.53516 12.9199 6.92969C13.5254 6.32422 14.2025 5.80339 14.9512 5.36719C15.6999 4.93099 16.4941 4.5957 17.334 4.36133C18.1738 4.12695 19.0625 4.00651 20 4ZM20 22.75C20.8008 22.75 21.5723 22.6458 22.3145 22.4375C23.0566 22.2292 23.7533 21.9362 24.4043 21.5586C25.0553 21.181 25.6478 20.722 26.1816 20.1816C26.7155 19.6413 27.1712 19.0521 27.5488 18.4141C27.9264 17.776 28.2227 17.0794 28.4375 16.3242C28.6523 15.569 28.7565 14.7943 28.75 14C28.75 13.1992 28.6458 12.4277 28.4375 11.6855C28.2292 10.9434 27.9362 10.2467 27.5586 9.5957C27.181 8.94466 26.722 8.35221 26.1816 7.81836C25.6413 7.28451 25.0521 6.82878 24.4141 6.45117C23.776 6.07357 23.0794 5.77734 22.3242 5.5625C21.569 5.34766 20.7943 5.24349 20 5.25C19.1992 5.25 18.4277 5.35417 17.6855 5.5625C16.9434 5.77083 16.2467 6.0638 15.5957 6.44141C14.9447 6.81901 14.3522 7.27799 13.8184 7.81836C13.2845 8.35872 12.8288 8.94792 12.4512 9.58594C12.0736 10.224 11.7773 10.9206 11.5625 11.6758C11.3477 12.431 11.2435 13.2057 11.25 14C11.25 14.8008 11.3542 15.5723 11.5625 16.3145C11.7708 17.0566 12.0638 17.7533 12.4414 18.4043C12.819 19.0553 13.278 19.6478 13.8184 20.1816C14.3587 20.7155 14.9479 21.1712 15.5859 21.5488C16.224 21.9264 16.9206 22.2227 17.6758 22.4375C18.431 22.6523 19.2057 22.7565 20 22.75Z" fill="black"/>
<defs>
<filter id="filter0_d_233_101" x="0" y="0" width="39" height="36" filterUnits="userSpaceOnUse" color-interpolation-filters="sRGB">
<feFlood flood-opacity="0" result="BackgroundImageFix"/>
<feColorMatrix in="SourceAlpha" type="matrix" values="0 0 0 0 0 0 0 0 0 0 0 0 0 0 0 0 0 0 127 0" result="hardAlpha"/>
<feOffset dy="4"/>
<feGaussianBlur stdDeviation="2"/>
<feComposite in2="hardAlpha" operator="out"/>
<feColorMatrix type="matrix" values="0 0 0 0 0 0 0 0 0 0 0 0 0 0 0 0 0 0 0.04 0"/>
<feBlend mode="normal" in2="BackgroundImageFix" result="effect1_dropShadow_233_101"/>
<feBlend mode="normal" in="SourceGraphic" in2="effect1_dropShadow_233_101" result="shape"/>
</filter>
</defs>
</svg>
